<?xml version="1.0" encoding="UTF-8"?>
<svg width="350mm" height="246.4mm" version="1.1" viewBox="0 0 250 176" xmlns="http://www.w3.org/2000/svg">
    <g fill="none" stroke="#000" stroke-width=".365">
        <g id="small1" stroke="#145154">
            <path d="m71.462 20.513v6.4222" />
            <path d="m74.473 23.456h-6.0213" />
            <path d="m69.039 27.448h4.8227" />
            <path d="m73.862 27.448s-2.2968 1.9086-5.7144 3.3591" />
            <path d="m69.504 27.916 4.8432 2.6905" />
            <path d="m69.392 30.212h3.3548" />
            <path
                d="m71.129 30.601v2.2498s-0.0866 0.73774 0.60916 0.73774c0.67015 0 2.8357-0.01163 2.8357-0.01163l-0.52726-1.8837" />
            <path d="m72.747 30.212s-1.426 2.0031-4.4949 3.4536" />
            <path d="m72.845 30.994 1.9159 1.1061" />
            <path d="m68.911 21.095 1.3736 2.3887" />
            <path d="m74.093 20.917s-0.49877 1.6418-1.7813 2.5384" />
            <path d="m71.472 23.33s-1.3818 2.3331-3.3538 3.0176" />
            <path d="m71.472 23.447 3.1022 3.0858" />
            <path d="m71.658 34.034v6.4222" />
            <path d="m74.232 36.48-5.8162 1.5584" />
            <path d="m71.658 40.456-1.9686-1.1366" />
            <path d="m70.27 40.841s-0.0367 2.5171-0.0367 3.7553c0 2.0866-1.6428 2.3772-1.6428 2.3772" />
            <path d="m72.491 40.841v6.4222" />
            <path d="m74.569 44.95h-6.4222" />
            <path d="m73.789 42.516h-5.0993" />
            <path d="m73.058 47.664v6.4222" />
            <path d="m74.569 50.592h-6.4222" />
            <path d="m71.263 48.477v4.3716" />
            <path d="m69.433 48.477v4.3716" />
            <path d="m74.169 54.559v6.1691" />
            <path d="m68.567 54.559v6.1691" />
            <path d="m74.169 54.559h-5.6015" />
            <path d="m74.169 60.224h-5.6015" />
            <path d="m69.303 56.414h4.1866" />
            <path d="m71.332 55.336s0.05946 2.9241-2.0836 3.9408" />
            <path d="m71.175 56.745 2.3582 2.5657" />
            <path d="m69.579 62.211v4.8367l-1.1358-0.52387" />
            <path d="m69.593 64.262s-0.75336 0.74997-1.6465 1.56" />
            <path d="m71.032 62.087h-2.9338" />
            <path d="m68.025 63.224 1.0296 0.55877" />
            <path d="m69.826 63.734 1.0296-0.55877" />
            <path d="m71.043 65.587-1.4035-0.79837" />
            <path d="m73.343 66.011 1.1446 0.50509v-2.2911h-3.3973" />
            <path d="m71.098 66.573v-2.6075" />
            <path d="m72.724 61.281v6.368" />
            <path d="m71.386 61.849v1.5533h2.6872" />
            <path d="m74.067 61.849v1.7863" />
            <path d="m70.948 68.618v4.0783" />
            <path d="m68.543 68.618v4.0783" />
            <path d="m70.948 68.618h-2.4051" />
            <path d="m70.948 72.192h-2.4051" />
            <path d="m70.978 69.904h3.6125" />
            <path d="m72.728 67.93s0.05131 4.7069-1.7979 6.3437" />
            <path d="m72.593 70.197 2.0348 4.1301" />
            <path d="m69.723 68.618v3.6216" />
            <path d="m64.518 20.513v6.4222" />
            <path d="m67.529 23.456h-6.0213" />
            <path d="m62.096 27.448h4.8227" />
            <path d="m66.918 27.448s-2.2968 1.9086-5.7144 3.3591" />
            <path d="m62.561 27.916 4.8432 2.6905" />
            <path d="m62.448 30.212h3.3548" />
            <path
                d="m64.185 30.601v2.2498s-0.0866 0.73774 0.60916 0.73774c0.67015 0 2.8357-0.01163 2.8357-0.01163l-0.52726-1.8837" />
            <path d="m65.803 30.212s-1.426 2.0031-4.4949 3.4536" />
            <path d="m65.902 30.994 1.9159 1.1061" />
            <path d="m61.967 21.095 1.3736 2.3887" />
            <path d="m67.149 20.917s-0.49877 1.6418-1.7813 2.5384" />
            <path d="m64.529 23.33s-1.3818 2.3331-3.3538 3.0176" />
            <path d="m64.529 23.447 3.1022 3.0858" />
            <path d="m82.974 70.907v1.8045h4.1548" />
            <path d="m87.119 70.907v2.0752" />
            <path d="m85.03 70.127s-0.0367 1.5161-0.0367 2.7544c0 0.88177-1.346 1.2905-2.446 1.2905" />
            <path d="m82.686 68.14h4.8228" />
            <path d="m87.509 68.14s-2.2968 1.9086-5.7145 3.3591" />
            <path d="m83.08 68.608 4.8432 2.6905" />
            <path d="m51.059 20.465v6.4222" />
            <path d="m54.07 23.408h-6.0213" />
            <path d="m48.637 27.4h4.8227" />
            <path d="m53.459 27.4s-2.2968 1.9086-5.7144 3.3591" />
            <path d="m49.101 27.868 4.8432 2.6905" />
            <path d="m48.989 30.164h3.3548" />
            <path
                d="m50.726 30.552v2.2498s-0.0866 0.73774 0.60916 0.73774c0.67015 0 2.8357-0.01163 2.8357-0.01163l-0.52726-1.8837" />
            <path d="m52.344 30.164s-1.426 2.0031-4.4949 3.4536" />
            <path d="m52.442 30.946 1.9159 1.1061" />
            <path d="m48.508 21.047 1.3736 2.3887" />
            <path d="m53.69 20.869s-0.49877 1.6418-1.7813 2.5384" />
            <path d="m51.07 23.282s-1.3818 2.3331-3.3538 3.0176" />
            <path d="m51.07 23.399 3.1022 3.0858" />
            <path d="m51.278 34.034v6.4222" />
            <path d="m53.852 36.48-5.8162 1.5584" />
            <path d="m51.278 40.456-1.9686-1.1366" />
            <path d="m48.496 42.239 1.2016 2.3178" />
            <path d="m53.471 41.61s-1.3458 4.0767-3.1483 5.3985" />
            <path d="m49.625 47.67v2.571h2.7212" />
            <path d="m52.34 47.67v2.9567" />
            <path d="m48.528 48.513h4.8728" />
            <path d="m49.28 50.505v2.9242h3.5655" />
            <path d="m52.838 50.505v3.3628" />
            <path d="m47.843 51.464h6.3847" />
        </g>
        <g id="small3" stroke="#61ff61">
            <path d="m197.54 111.06v3.0514h4.6738" />
            <path d="m202.2 111.06v3.5092" />
            <path d="m199.86 109.65v4.4458" />
            <path d="m197.06 109.58h5.5999" />
            <path d="m196.99 121.15h5.5646" />
            <path d="m196.99 116.96h2.6532" />
            <path d="m199.89 116.96h2.6532" />
            <path d="m198.44 115.58s0.0489 3.7409-1.7147 5.0417" />
            <path d="m198.28 117.41 1.3585 1.7352" />
            <path d="m201.02 115.58s0.0489 3.7409-1.7147 5.0417" />
            <path d="m200.87 117.23 1.9407 3.2825" />
            <path d="m195.18 115.46s-1.8449 1.8738-5.0045 3.3243" />
            <path d="m191.01 115.94 4.4775 2.6905" />
            <path d="m194.96 117.96s-2.019 2.7268-5.0045 3.6028" />
            <path d="m191.46 118.98 4.4775 2.6905" />
            <path d="m190.3 114.5h5.5646" />
            <path d="m190.29 110.31h2.6532" />
            <path d="m193.2 110.31h2.6532" />
            <path d="m191.75 108.94s0.0489 3.7409-1.7147 5.0417" />
            <path d="m191.59 110.77 1.3585 1.7352" />
            <path d="m194.32 108.94s0.0489 3.7409-1.7147 5.0417" />
            <path d="m194.18 110.58 1.9407 3.2825" />
        </g>

        <g id="small4" stroke="#d32d27">
            <path d="m11.607 142.52v6.4222" />
            <path d="m9.0613 143.44v3.8283" />
            <path d="m141.61 138.83h-6.0213" />
            <path d="m128.25 138.83h-6.0213" />
            <path d="m113.4 135.62v6.4222" />
            <path d="m111.61 136.43v4.3716" />
            <path d="m109.78 136.43v4.3716" />
            <path d="m99.931 135.62v6.4222" />
            <path d="m98.137 136.43v4.3716" />
            <path d="m96.307 136.43v4.3716" />
            <path d="m86.209 135.62v6.4222" />
            <path d="m84.414 136.43v4.3716" />
            <path d="m82.584 136.43v4.3716" />
            <path d="m72.737 135.62v6.4222" />
            <path d="m70.942 136.43v4.3716" />
            <path d="m69.112 136.43v4.3716" />
            <path d="m59.298 135.62v6.4222" />
            <path d="m57.503 136.43v4.3716" />
            <path d="m55.673 136.43v4.3716" />
            <path d="m40.502 145.63h-6.0213" />
            <path d="m40.27 136.34h-5.5999" />
            <path d="m37.47 141.77v-5.4837" />
            <path d="m26.831 136.34h-5.5999" />
            <path d="m24.031 141.77v-5.4837" />
            <path d="m25.826 142.43v6.4222" />
            <path d="m24.031 143.25v4.3716" />
            <path d="m22.201 143.25v4.3716" />
            <path d="m153.16 135.67v6.4222" />
            <path d="m151.01 136.59v3.8283" />
            <path d="m155.1 138.49h-6.0213" />
            <path d="m162.96 136.31 3.4594-8e-3s-3.3441 2.7682-3.3441 3.9379c0 1.64 1.8835 1.2616 5.2104 1.2616" />
            <path d="m168.29 141.5-0.75755-2.8272" />
            <path d="m182.08 138.83h-6.0213" />
            <path d="m176.32 143.13 3.4594-8e-3s-3.3441 2.7682-3.3441 3.9379c0 1.64 1.8835 1.2616 5.2104 1.2616" />
            <path d="m181.65 148.32-0.75755-2.8272" />
            <path d="m13.194 141.64h-5.5999" />
            <path d="m10.395 136.21v5.4837" />
            <path d="m62.315 137.53h4.261" />
            <path d="m64.122 135.95s0.07858 4.289-2.7538 5.7804" />
            <path d="m63.887 137.83 3.1168 3.7634" />
            <path d="m62.512 136.39s0.10477 1.6333-0.86431 2.3427" />
            <path d="m62.315 144.18h4.261" />
            <path d="m64.122 142.6s0.07858 4.289-2.7538 5.7804" />
            <path d="m63.887 144.49 3.1168 3.7634" />
            <path d="m62.512 143.04s0.10477 1.6333-0.86431 2.3427" />
            <path d="m62.315 151h4.261" />
            <path d="m64.122 149.42s0.07858 4.289-2.7538 5.7804" />
            <path d="m63.887 151.31 3.1168 3.7634" />
            <path d="m62.512 149.86s0.10477 1.6333-0.86431 2.3427" />
            <path d="m62.315 157.65h4.261" />
            <path d="m64.122 156.07s0.07858 4.289-2.7538 5.7804" />
            <path d="m63.887 157.96 3.1168 3.7634" />
            <path d="m62.512 156.51s0.10477 1.6333-0.86431 2.3427" />
            <path d="m62.315 164.64h4.261" />
            <path d="m64.122 163.06s0.07858 4.289-2.7538 5.7804" />
            <path d="m63.887 164.94 3.1168 3.7634" />

            <path d="m75.898 144.18h4.261" />
            <path d="m77.706 142.6s0.07858 4.289-2.7538 5.7804" />
            <path d="m77.471 144.49 3.1168 3.7634" />
            <path d="m76.095 143.04s0.10477 1.6333-0.86431 2.3427" />
            <path d="m75.898 151h4.261" />
            <path d="m77.706 149.42s0.07858 4.289-2.7538 5.7804" />
            <path d="m77.471 151.31 3.1168 3.7634" />
            <path d="m76.095 149.86s0.10477 1.6333-0.86431 2.3427" />
            <path d="m89.426 144.18h4.261" />
            <path d="m91.234 142.6s0.0786 4.289-2.7538 5.7804" />
            <path d="m90.998 144.49 3.1168 3.7634" />
            <path d="m89.623 143.04s0.10477 1.6333-0.86432 2.3427" />
            <path d="m89.426 151h4.261" />
            <path d="m91.234 149.42s0.0786 4.289-2.7538 5.7804" />
            <path d="m90.998 151.31 3.1168 3.7634" />
            <path d="m89.623 149.86s0.10477 1.6333-0.86432 2.3427" />
            <path d="m88.725 136.87h4.9511" />
            <path d="m91.197 135.59s0.0913 3.463-3.1999 4.6672" />
            <path d="m90.957 136.97 3.6217 3.0386" />
            <path d="m89.31 140.14h3.6851" />
            <path d="m91.234 138.24v3.7957" />
            <path d="m103.29 136.9h4.4498" />
            <path d="m107.74 136.9-1.1243 4.8402" />
            <path d="m104.49 136.91s0.14039 1.8527-1.1934 3.8862" />
            <path d="m103.43 136.08s-0.22361 1.8543-1.5574 3.8895" />
            <path d="m101.78 136.08h1.6496" />
            <path d="m106.01 136.91s0.1404 2.0526-1.1934 4.3055" />
            <path d="m106.61 141.74-2.0844-1.1893" />
            <path d="m102.88 144.98h4.8932" />
            <path d="m107.77 144.98-1.1243 3.681" />
            <path d="m104.53 145s0.1404 1.409-1.1934 2.9555" />
            <path d="m103.47 142.79s-0.22361 1.9557-1.5574 4.1021" />
            <path d="m103.26 143.88h2.9402" />
            <path d="m106.05 144.99s0.14039 1.5611-1.1934 3.2744" />
            <path d="m106.64 148.66-2.0844-0.90447" />
            <path d="m101.91 142.79h4.8086" />
            <path d="m115.68 138.69h4.9511" />
            <path d="m118.15 137.44s0.0913 3.4051-3.1998 4.5892" />
            <path d="m117.91 138.79 3.6216 2.9879" />
            <path d="m117.37 135.73 1.3107 1.3093" />
            <path d="m115.46 137.08h5.5972" />

            <path d="m129.85 151.69h4.9341" />
            <path d="m134.78 151.69-1.1337 3.7604" />
            <path d="m131.51 151.7s0.14157 1.4394-1.2033 3.0192" />
            <path d="m130.44 149.45s-0.22547 1.9978-1.5704 4.1906" />
            <path d="m130.23 150.56h2.9648" />
            <path d="m133.05 151.7s0.14156 1.5947-1.2033 3.345" />
            <path d="m133.65 155.45-2.1018-0.92397" />
            <path d="m128.88 149.45h4.8487" />
            <path d="m130.58 139.5s-0.63783 1.4753-1.6688 1.975" />
            <path d="m130.02 136.29v3.0257h3.5656" />
            <path d="m133.58 136.29v3.4796" />
            <path d="m128.58 137.28h6.3848" />
            <path d="m132.92 139.5 1.3799 1.9957" />
            <path d="m143.43 137.54h4.3228" />
            <path d="m145.26 135.95s0.0797 4.3129-2.7938 5.8126" />
            <path d="m145.02 137.85 3.162 3.7844" />
            <path d="m143.63 136.39s0.10629 1.6424-0.87686 2.3558" />
            <path d="m143.31 151.77h4.9401" />
            <path d="m148.25 151.77-1.1351 3.7426" />
            <path d="m144.98 151.78s0.14174 1.4326-1.2048 3.0049" />
            <path d="m143.91 149.54s-0.22575 1.9884-1.5723 4.1707" />
            <path d="m143.7 150.65h2.9684" />
            <path d="m146.51 151.78s0.14174 1.5872-1.2048 3.3292" />
            <path d="m147.11 155.51-2.1044-0.9196" />
            <path d="m142.34 149.54h4.8546" />
            <path d="m143.1 143.03h4.2692" />
            <path d="m142.11 147.99h6.3847" />
            <path d="m142.79 145.47h4.8728" />
            <path d="m147.37 143.03-0.95789 4.9752" />
            <path d="m144.54 143.04s0.14174 2.5862-1.2048 4.9138" />
            <path d="m88.725 136.87h4.9511" />
            <path d="m91.197 135.59s0.0913 3.463-3.1999 4.6672" />
            <path d="m90.957 136.97 3.6217 3.0386" />
            <path d="m89.31 140.14h3.6851" />
            <path d="m91.234 138.24v3.7957" />
            <path d="m161.36 143.77v2.6911" />
            <path d="m156.36 143.77v2.6911" />
            <path d="m161.36 143.77h-5.0012" />
            <path d="m161.36 146.09h-5.0012" />
            <path d="m159.79 139.87 1.8046 0.83567v-3.7907h-5.3563" />
            <path d="m156.25 140.71v-4.2096" />
            <path d="m158.96 135.62v6.368" />
            <path d="m158.96 142.6s0.40387 5.7403-3.2095 6.1078" />
            <path d="m158.97 146.72 2.8947 1.8481" />
            <path d="m156.21 150.48h4.9511" />
            <path d="m158.68 149.2s0.0913 3.463-3.1999 4.6672" />
            <path d="m158.44 150.58 3.6217 3.0386" />
            <path d="m156.8 153.75h3.6851" />
            <path d="m158.72 151.85v3.7957" />
            <path d="m156.21 150.48h4.9511" />
            <path d="m158.68 149.2s0.0913 3.463-3.1999 4.6672" />
            <path d="m158.44 150.58 3.6217 3.0386" />
            <path d="m156.8 153.75h3.6851" />
            <path d="m158.72 151.85v3.7957" />
            <path d="m174.88 157.25v2.6911" />
            <path d="m169.88 157.25v2.6911" />
            <path d="m174.88 157.25h-5.0012" />
            <path d="m174.88 159.57h-5.0012" />
            <path d="m173.31 153.35 1.8046 0.83567v-3.7907h-5.3563" />
            <path d="m169.77 154.19v-4.2096" />
            <path d="m172.48 149.1v6.368" />
            <path d="m172.48 156.08s0.40387 5.7403-3.2095 6.1078" />
            <path d="m172.49 160.2 2.8947 1.8481" />
            <path d="m169.73 163.96h4.9511" />
            <path d="m172.21 162.68s0.0913 3.463-3.1999 4.6672" />
            <path d="m171.97 164.06 3.6217 3.0386" />
            <path d="m170.32 167.23h3.6851" />
            <path d="m172.24 165.33v3.7957" />
            <path d="m169.73 163.96h4.9511" />
            <path d="m172.21 162.68s0.0913 3.463-3.1999 4.6672" />
            <path d="m171.97 164.06 3.6217 3.0386" />
            <path d="m170.32 167.23h3.6851" />
            <path d="m172.24 165.33v3.7957" />
            <path d="m170.43 137.54h4.3228" />
            <path d="m172.26 135.95s0.0797 4.3129-2.7938 5.8126" />
            <path d="m172.03 137.85 3.162 3.7844" />
            <path d="m170.63 136.39s0.10629 1.6424-0.87686 2.3558" />
            <path d="m170.1 143.03h4.2692" />
            <path d="m169.11 147.99h6.3847" />
            <path d="m169.8 145.47h4.8728" />
            <path d="m174.37 143.03-0.95789 4.9752" />
            <path d="m171.54 143.04s0.14174 2.5862-1.2048 4.9138" />
            <path d="m188.64 135.87v6.1691" />
            <path d="m183.04 135.87v6.1691" />
            <path d="m188.64 135.87h-5.6015" />
            <path d="m188.64 141.53h-5.6015" />
            <path d="m183.67 137.42h4.1866" />
            <path d="m187.85 137.42s-0.69139 0.85528-2.3134 1.9027" />
            <path d="m184.45 138.04 2.3582 2.5657" />
            <path d="m184.87 142.71s0.2923 5.3603-1.6089 6.036" />
            <path
                d="m186.53 142.69v4.7673s-0.0906 1.1418 0.63728 1.1418c0.70109 0 1.7927-0.0115 1.7927-0.0115l-0.55161-1.8685" />
            <path d="m185.64 144.83s-1.9235 1.2797-2.9545 1.7794" />
            <path d="m186.79 144.49 1.8494 1.5706" />
            <path d="m186.16 149.16v6.4222" />
            <path d="m188.74 151.61-5.8162 1.5584" />
            <path d="m186.16 155.58-1.9686-1.1366" />
            <path d="m184.31 157.59 3.0744 3.0744" />
            <path d="m188.27 163.93v4.0894" />
            <path d="m183.84 163.93v4.0894" />
            <path d="m188.27 163.93h-4.4338" />
            <path d="m188.27 167.45h-4.4338" />
            <path d="m182.87 165.72h6.3365" />
            <path d="m186.04 162.67v6.619" />

            <path d="m42.23 137.29v2.653h4.1549" />
            <path d="m46.376 137.29v3.325" />
            <path d="m44.287 136.49s-0.0367 2.4471-0.0367 3.7114c0 0.90034-1.346 1.583-2.4461 1.583" />
            <path d="m41.021 136.06h6.3112" />
            <path d="m46.536 143.6v4.11" />
            <path d="m42.068 143.6v4.11" />
            <path d="m46.536 143.6h-4.4672" />
            <path d="m46.536 147.13h-4.4672" />
            <path d="m41.09 145.39h6.3843" />
            <path d="m44.282 142.33v6.6524" />
            <path d="m44.258 151.5s-0.278 0.91021-1.5788 1.7151" />
            <path d="m44.202 151.66 1.6715 1.3503" />
            <path d="m46.3 156.19v2.8197" />
            <path d="m42.395 156.19v2.8197" />
            <path d="m46.3 156.19h-3.9055" />
            <path d="m46.3 158.62h-3.9055" />
            <path d="m42.851 158.88v2.9242h2.994" />
            <path d="m45.839 158.88v3.3628" />
            <path d="m41.195 159.84h6.232" />
            <path d="m44.328 156.21v2.4181" />
            <path d="m46.3 157.43h-3.9055" />
            <path d="m28.277 157.06 1.2311 2.3447" />
            <path d="m33.374 156.43s-1.3788 4.124-3.2254 5.4612" />
            <path d="m33.009 136.8v4.1114" />
            <path d="m28.542 136.8v4.1114" />
            <path d="m33.009 136.8h-4.4673" />
            <path d="m33.009 140.34h-4.4673" />
            <path d="m27.563 138.59h6.3844" />
            <path d="m30.756 135.53v6.6546" />
            <path d="m31.367 165.19 0.96147 0.62915v-2.8539h-2.8538" />
            <path d="m29.481 165.82v-3.1693" />
            <path d="m29.696 165.51s-0.04091 0.95286-0.04091 1.8195c0 1.4604-1.8313 1.6638-1.8313 1.6638" />
            <path d="m32.172 165.91v3.2903" />
            <path d="m34.047 167.36h-6.4221" />
            <path d="m32.172 165.91h-2.4567" />
            <path d="m32.172 169.2-1.2436-0.66246" />
            <path d="m33.223 164.4h-4.8094" />
            <path d="m29.349 142.61v2.571h2.7212" />
            <path d="m32.064 142.61v2.9567" />
            <path d="m28.252 143.46h4.8728" />
            <path d="m29.004 145.45v2.9242h3.5655" />
            <path d="m32.562 145.45v3.3628" />
            <path d="m27.567 146.41h6.3847" />
            <path d="m31.184 149.13v6.4222" />
            <path d="m33.758 151.58-5.8162 1.5584" />
            <path d="m31.184 155.56-1.9686-1.1366" />
            <path d="m17.163 135.72v6.4222" />
            <path d="m14.513 148.35h5.5646" />
            <path d="m14.506 144.16h2.6532" />
            <path d="m17.413 144.16h2.6532" />
            <path d="m15.962 142.78s0.0489 3.7409-1.7147 5.0417" />
            <path d="m15.805 144.61 1.3585 1.7352" />
            <path d="m18.539 142.78s0.0489 3.7409-1.7147 5.0417" />
            <path d="m18.392 144.43 1.9407 3.2825" />
            <path d="m17.163 149.25v6.4222" />
            <path d="m16.94 156s-0.7777 1.9608-2.6251 3.0818" />
            <path d="m19.094 156.74s-1.8094 4.5565-4.7882 5.4362" />
            <path d="m15.596 158.64 4.6725 3.6494" />
            <path d="m19.094 156.74-2.4299 0.0256" />
        
            <path d="m62.512 163.5s0.10477 1.6333-0.86431 2.3427" />
        </g>

    </g>
</svg>