<?xml version="1.0" encoding="UTF-8"?>
<svg width="250mm" height="176mm" version="1.1" viewBox="0 0 250 176" xmlns="http://www.w3.org/2000/svg">
   <g fill="none" stroke="#000" stroke-width=".265">

      <g id="complete">
         <g id="官AI1:AJ2" stroke="#ff0000">
            <path d="m234.68 7.297 2.6473 2.6639" />
            <path d="m230.82 10.049h11.305" />

            <path d="m230.8 13.428h5.39" />
            <path d="m233.76 11.049s0.0994 6.4591-3.4835 8.7052" />
            <path d="m233.44 14.21 2.7598 2.996" />

            <path d="m236.71 13.428h5.39" />
            <path d="m239 11.049s0.0994 6.4591-3.4835 8.7052" />
            <path d="m238.7 13.891 3.9427 5.6676" />
         </g>

         <g id="定AI3:AJ4" stroke="#00ff00">
            <path d="m231.98 23.704v5.142h6.3131" />
            <path d="m238.28 23.704v5.9134" />
            <path d="m235.11 21.481s-0.0558 4.3202-0.0558 7.8488c0 2.5127-2.0452 3.6773-3.7167 3.6773" />

            <path d="m241.17 20.396v13.437" />
         </g>
         <g id="机AI5:AJ6" stroke="#0000ff">
            <path d="m231.17 35.852h9.7354" />
            <path d="m234.07 35.859s0.59589 8.6709-3.2799 10.052" />
            <path
               d="m237.46 35.812v7.4589s-0.18461 2.3338 1.2992 2.3338c1.4293 0 3.6547-0.02358 3.6547-0.02358l-1.1245-3.819" />
         </g>

         <g id="小AI9:AJ10" stroke="#00aa00">
            <path d="m231.6 62.089h9.7354" />
            <path d="m230.82 67.624h11.305" />
            <path d="m236.47 62.09v11.733" />
         </g>
         <g id="律AI11:AJ12" stroke="#0000aa">
            <path d="m230.62 85.127v-7.7509" />
            <path d="m234.03 83.457 1.7372 1.5014v-6.8104h-5.1564" />
            <path d="m233.23 74.953v12.736" />

            <path d="m236.81 77.324h5.2586" />
            <path d="m237.24 79.58 0.70158 5.2118" />
            <path d="m241.54 77.375s-0.26726 6.2808-1.7372 9.0872" />
            <path d="m236.16 86.533h6.5608" />
         </g>

         <g id="行AC1:AD2" stroke="#770000">
            <path d="m191.37 9.6095h9.7457" />
            <path d="m193.57 7.9233v5.142h5.4424" />
            <path d="m199 7.9233v5.9134" />

            <path d="m190 15.511h12.769" />
            <path d="m192.88 13.593v5.8483h7.1311" />
            <path d="m199.99 13.593v6.7257" />
         </g>

         <g id="術AC3:AD4" stroke="#007700">
            <path d="m190.34 23.704v5.142h5.4552" />
            <path d="m195.78 23.704v5.9134" />
            <path d="m193.04 21.481s-0.0482 4.3202-0.0482 7.8488c0 2.5127-1.7672 3.6773-3.2116 3.6773" />

            <path d="m196.77 23.704v5.142h5.4552" />
            <path d="m202.21 23.704v5.9134" />
            <path d="m199.46 20.396v13.437" />
         </g>

         <g id="普AD5" stroke="#aaaa00">
            <path d="m198.09 34.769s-0.76775 1.4623-1.657 1.7766" />
            <path d="m198.09 36.356s-0.76775 1.4623-1.657 1.7766" />
            <path d="m198.65 37.174s-0.68263 1.9265-2.4741 3.0495" />

            <path d="m201.71 35.392s-1.3524 1.782-2.8096 2.3111" />
            <path
               d="m199.4 34.175v3.7294s-0.12571 2.2193 1.3178 2.2193c0.71464 0 1.4265-0.01179 1.4265-0.01179l-0.56227-2.1457" />
         </g>

         <g id="時AD6" stroke="#ee00ee">
            <path d="m197.24 41.106v2.8197" />
            <path d="m201.15 41.106h-3.9055" />
            <path d="m201.15 41.106v2.8197" />
            <path d="m201.15 42.346h-3.9055" />
            <path d="m199.17 41.118v2.4181" />
            <path d="m201.15 43.534h-3.9055" />

            <path d="m196.04 44.755h6.232" />
            <path d="m197.7 43.796v2.9242h2.994" />
            <path d="m200.69 43.796v3.3628" />
         </g>

         <g id="行AD7" stroke="#00eeee">
            <path d="m196.67 48.513h4.8728" />
            <path d="m197.76 47.67v2.571h2.7212" />
            <path d="m200.48 47.67v2.9567" />

            <path d="m195.98 51.464h6.3847" />
            <path d="m197.42 50.505v2.9242h3.5655" />
            <path d="m200.98 50.505v3.3628" />
         </g>

         <g id="始AC5" stroke="#f83800">
            <path d="m190.84 34.993v3.82" />
            <path d="m195.08 34.993h-4.2357" />
            <path d="m195.08 34.993v3.82" />
            <path d="m195.08 36.674h-4.2357" />
            <path d="m192.94 35.009v3.276" />
            <path d="m195.08 38.282h-4.2357" />

            <path d="m189.75 39.899h6.3847" />
         </g>

         <g id="皇AC6" stroke="orange">
            <path d="m195.19 41.959v4.1205" />
            <path d="m190.73 41.959v4.1205" />
            <path d="m195.19 41.959h-4.4675" />
            <path d="m195.19 45.506h-4.4675" />
            <path d="m189.75 43.762h6.3847" />
            <path d="m192.94 40.693v6.6694" />
         </g>

         <g id="処AC7" stroke="#ff88ff">
            <path d="m190.5 49h4.8728" />
            <path d="m189.75 52.843h6.3847" />
         </g>
      </g> <!-- #complete -->



      <g id="戦AI7:AJ8" stroke="#aa0000">
         <path d="m231.15 49.13s0.13253 3.3005-1.0933 4.7341" />
         <path d="m230.94 51.429h5.39" />
         <path d="m233.89 48.237s0.0994 8.667-3.4835 11.681" />
         <path d="m233.58 52.479 2.7598 4.0201" />

         <path d="m236.84 51.429h5.39" />
         <path d="m239.13 48.237s0.0994 8.667-3.4835 11.681" />
         <path d="m238.83 52.051 3.9427 7.6049" />
      </g>

      <g id="巫M1:N2" stroke="green">
         <path d="m83.027 9.6976v5.382" />
         <path d="m93.088 9.6976h-10.06" />
         <path d="m93.088 9.6976v5.382" />
         <path d="m93.088 14.331h-10.06" />
      </g>

      <g id="縦AA3" stroke="purple">
         <!-- must bake -->
         <g transform="matrix(.49539 0 0 .49911 75.718 -3.1594)">
            <path d="m207.66 48.213 2.6473 2.6639" />
            <path d="m203.79 50.964h11.305" />
         </g>
      </g>


      <path d="m179.32 8.4525v6.0948h7.1311" />
      <path d="m186.43 8.4525v7.0092" />
      <path d="m180.44 14.911s-1.2756 2.9719-3.3375 3.9784" />
      <path d="m176.44 10.451h12.769" />
      <path d="m185.12 14.92 2.7598 4.0201" />
      <path d="m183.3 26.355h5.5999" />
      <path d="m186.1 20.923v5.4837" />
      <path d="m184.04 30.277v1.7983h4.1545" />
      <path d="m188.19 30.277v2.0681" />
      <path d="m186.1 29.499s-0.0367 1.5109-0.0367 2.7449c0 0.87874-1.3459 1.2861-2.4459 1.2861" />
      <path d="m183.76 27.518h4.8224" />
      <path d="m188.58 27.518s-2.2967 1.9021-5.7141 3.3476" />
      <path d="m184.15 27.985 4.8429 2.6812" />
      <path d="m182.32 23.488h-5.6002" />
      <path d="m179.52 26.913v-3.4553" />
      <path d="m178.69 34.139v6.0544l-1.1358-0.65576" />
      <path d="m179.3 36.326s-1.3651 1.7986-2.836 2.3327" />
      <path d="m180.26 34.139v6.2214" />
      <path d="m180.21 36.599 2.3839 1.3819" />
      <path d="m180.71 40.747v6.4222" />
      <path d="m178.16 41.667v3.8283" />
      <path d="m177.47 30.283v1.8045h4.1548" />
      <path d="m181.61 30.283v2.0752" />
      <path d="m179.52 29.503s-0.0367 1.5161-0.0367 2.7544c0 0.88177-1.346 1.2905-2.446 1.2905" />
      <path d="m177.18 27.515h4.8228" />
      <path d="m182 27.515s-2.2968 1.9086-5.7145 3.3591" />
      <path d="m177.57 27.983 4.8432 2.6905" />
      <path d="m237.09 49.13s0.13253 3.3005-1.0933 4.7341" />
      <path d="m165.71 11.072h8.6456" />
      <path d="m169.38 7.8788s0.15944 8.667-5.5876 11.681" />
      <path d="m168.9 11.693 6.3241 7.6049" />
      <path d="m166.11 8.7726s0.21258 3.3005-1.7537 4.7341" />
      <path d="m169.93 26.355h5.5999" />
      <path d="m172.73 20.923v5.4837" />
      <path d="m172.77 27.273v6.4222" />
      <path d="m163.22 26.355h5.5999" />
      <path d="m166.02 20.923v5.4837" />
      <path d="m167.15 27.282v6.4222" />
      <path d="m164.6 28.201v3.8283" />
      <path d="m165.97 34.077v6.4222" />
      <path d="m168.98 37.288h-6.0213" />
      <path d="m163.55 41.079h4.8228" />
      <path d="m168.37 41.079s-2.2968 1.9086-5.7145 3.3591" />
      <path d="m164.01 41.547 4.8432 2.6905" />
      <path d="m163.9 43.843h3.3548" />
      <path
         d="m165.63 44.231v2.2498s-0.0866 0.73774 0.60916 0.73774c0.67015 0 2.8357-0.01163 2.8357-0.01163l-0.52726-1.8837" />
      <path d="m167.25 43.843s-1.426 2.0031-4.4949 3.4536" />
      <path d="m167.35 44.625 1.9159 1.1061" />
      <path d="m151.49 8.5701h8.5385" />
      <path d="m149.51 18.535h12.769" />
      <path d="m150.88 13.484h9.7457" />
      <path d="m160.03 8.5701-1.9158 9.998" />
      <path d="m154.37 8.599s0.28348 5.1972-2.4096 9.8746" />
      <path d="m159.15 20.513v6.4222" />
      <path d="m162.16 23.724h-6.0213" />
      <path d="m156.73 27.448h4.8228" />
      <path d="m161.55 27.448s-2.2968 1.9086-5.7145 3.3591" />
      <path d="m157.2 27.916 4.8432 2.6905" />
      <path d="m157.08 30.212h3.3548" />
      <path
         d="m158.82 30.601v2.2498s-0.0866 0.73774 0.60916 0.73774c0.67015 0 2.8357-0.01163 2.8357-0.01163l-0.52726-1.8837" />
      <path d="m160.44 30.212s-1.426 2.0031-4.4949 3.4536" />
      <path d="m160.54 30.994 1.9159 1.1061" />
      <path d="m157.25 36.988v1.8045h4.1548" />
      <path d="m161.4 36.988v2.0752" />
      <path d="m159.31 36.208s-0.0367 1.5161-0.0367 2.7544c0 0.88177-1.346 1.2905-2.446 1.2905" />
      <path d="m156.96 34.22h4.8228" />
      <path d="m161.79 34.22s-2.2968 1.9086-5.7145 3.3591" />
      <path d="m157.36 34.688 4.8432 2.6905" />
      <path d="m150.07 27.448h4.8228" />
      <path d="m154.89 27.448s-2.2968 1.9086-5.7145 3.3591" />
      <path d="m150.53 27.916 4.8432 2.6905" />
      <path d="m150.42 30.212h3.3548" />
      <path
         d="m152.16 30.601v2.2498s-0.0866 0.73774 0.60916 0.73774c0.67015 0 2.8357-0.01163 2.8357-0.01163l-0.52726-1.8837" />
      <path d="m153.78 30.212s-1.426 2.0031-4.4949 3.4536" />
      <path d="m153.87 30.994 1.9159 1.1061" />
      <path d="m154.99 20.713s-2.2968 3.4579-5.7145 6.0857" />
      <path d="m150.45 21.734 3.9924 3.9924" />
      <g transform="translate(-26.631)">
         <g transform="matrix(1 0 0 1.0956 .18899 -1.8256)">
            <path d="m172.82 11.783v7.3142" />
            <path d="m164.73 11.783v7.3142" />
            <path d="m172.82 11.783h-8.0867" />
            <path d="m172.82 18.08h-8.0867" />
            <path d="m168.74 11.814v6.2725" />
         </g>
         <path d="m175.42 14.528h-12.906" />
      </g>
      <path d="m136.63 11.973v-3.7418h11.41v3.7418" />
      <path d="m145.69 20.513v6.4222" />
      <path d="m148.7 23.724h-6.0213" />
      <path d="m143.27 27.448h4.8228" />
      <path d="m148.09 27.448s-2.2968 1.9086-5.7145 3.3591" />
      <path d="m143.73 27.916 4.8432 2.6905" />
      <path d="m143.62 30.212h3.3548" />
      <path
         d="m145.36 30.601v2.2498s-0.0866 0.73774 0.60916 0.73774c0.67015 0 2.8357-0.01163 2.8357-0.01163l-0.52726-1.8837" />
      <path d="m146.97 30.212s-1.426 2.0031-4.4949 3.4536" />
      <path d="m147.07 30.994 1.9159 1.1061" />
      <path d="m136.54 27.448h4.8228" />
      <path d="m141.36 27.448s-2.2968 1.9086-5.7145 3.3591" />
      <path d="m137 27.916 4.8432 2.6905" />
      <path d="m136.89 30.212h3.3548" />
      <path
         d="m138.63 30.601v2.2498s-0.0866 0.73774 0.60916 0.73774c0.67015 0 2.8357-0.01163 2.8357-0.01163l-0.52726-1.8837" />
      <path d="m140.25 30.212s-1.426 2.0031-4.4949 3.4536" />
      <path d="m140.35 30.994 1.9159 1.1061" />
      <path d="m141.46 20.713s-2.2968 3.4579-5.7145 6.0857" />
      <path d="m136.92 21.734 3.9924 3.9924" />
      <path d="m141.37 34.22s-2.1234 1.9086-5.283 3.3591" />
      <path d="m136.92 34.733 4.4775 2.6905" />
      <path d="m137.44 36.852v3.2939h2.994" />
      <path d="m140.43 36.852v3.7881" />
      <path d="m135.56 37.932h6.6218" />
      <path d="m138.02 34.077 1.2217 0.70536" />
      <path d="m148.14 34.22s-2.1234 1.9086-5.283 3.3591" />
      <path d="m143.7 34.733 4.4775 2.6905" />
      <path d="m144.21 36.852v3.2939h2.994" />
      <path d="m147.2 36.852v3.7881" />
      <path d="m142.33 37.932h6.6218" />
      <path d="m144.79 34.077 1.2217 0.70536" />
      <path d="m125.59 10.241h8.985" />
      <path d="m134.58 10.241-2.2701 9.8894" />
      <path d="m128.03 10.276s0.28348 3.7855-2.4096 7.9402" />
      <path d="m125.89 8.5685s-0.45151 3.7887-3.1446 7.947" />
      <path d="m122.56 8.5685h3.3309" />
      <path d="m131.1 10.269s0.28348 4.1939-2.4096 8.797" />
      <path d="m132.31 20.13-4.2088-2.4299" />
      <path d="m111.04 12.609h9.8803" />
      <path d="m120.92 12.609-2.2701 7.521" />
      <path d="m114.37 12.636s0.28348 2.8789-2.4096 6.0386" />
      <path d="m112.23 8.1342s-0.45151 3.9958-3.1446 8.3813" />
      <path d="m111.81 10.351h5.9368" />
      <path d="m117.44 12.631s0.28348 3.1896-2.4096 6.6903" />
      <path d="m118.65 20.13-4.2088-1.848" />
      <path d="m109.09 8.1342h9.7093" />
      <path d="m103.36 15.698 3.6301 1.6713v-7.5811h-10.775" />
      <path d="m96.243 17.37v-8.419" />
      <path d="m101.69 7.195v12.736" />
      <path d="m88.26 7.3443s0.81241 11.48-6.4562 12.215" />
      <path d="m88.284 15.602 5.8229 3.6961" />
      <path d="m69.647 9.5862h9.9999" />
      <path d="m74.639 7.034s0.18442 6.928-6.4628 9.3371" />
      <path d="m74.154 9.7821 7.3148 6.079" />
      <path d="m70.827 16.134h7.4429" />
      <path d="m74.713 12.337v7.5936" />
      <path d="m55.882 13.335h9.9999" />
      <path d="m60.875 10.783s0.18442 6.928-6.4628 9.3371" />
      <path d="m60.39 13.531 7.3147 6.079" />
      <path d="m59.31 7.297 2.6473 2.6639" />
      <path d="m55.443 10.049h11.305" />
      <path d="m52.213 9.4446v8.2405" />
      <path d="m43.278 9.4446v8.2405" />
      <path d="m52.213 9.4446h-8.9345" />
      <path d="m52.213 16.539h-8.9345" />
      <path d="m41.321 13.051h12.769" />
      <path d="m47.705 6.9124v13.338" />
      <path d="m129.92 27.448h4.8228" />
      <path d="m134.74 27.448s-2.2968 1.9086-5.7145 3.3591" />
      <path d="m130.38 27.916 4.8432 2.6905" />
      <path d="m130.27 30.212h3.3548" />
      <path
         d="m132.01 30.601v2.2498s-0.0866 0.73774 0.60916 0.73774c0.67015 0 2.8357-0.01163 2.8357-0.01163l-0.52726-1.8837" />
      <path d="m133.63 30.212s-1.426 2.0031-4.4949 3.4536" />
      <path d="m133.72 30.994 1.9159 1.1061" />
      <path d="m134.84 20.713s-2.2968 3.4579-5.7145 6.0857" />
      <path d="m130.3 21.734 3.9924 3.9924" />
      <path d="m122.97 27.448h4.8228" />
      <path d="m127.79 27.448s-2.2968 1.9086-5.7145 3.3591" />
      <path d="m123.43 27.916 4.8432 2.6905" />
      <path d="m123.32 30.212h3.3548" />
      <path
         d="m125.06 30.601v2.2498s-0.0866 0.73774 0.60916 0.73774c0.67015 0 2.8357-0.01163 2.8357-0.01163l-0.52726-1.8837" />
      <path d="m126.68 30.212s-1.426 2.0031-4.4949 3.4536" />
      <path d="m126.77 30.994 1.9159 1.1061" />
      <path d="m127.89 20.713s-2.2968 3.4579-5.7145 6.0857" />
      <path d="m123.35 21.734 3.9924 3.9924" />
      <path d="m123.58 36.988v1.8045h4.1548" />
      <path d="m127.72 36.988v2.0752" />
      <path d="m125.63 36.208s-0.0367 1.5161-0.0367 2.7544c0 0.88177-1.346 1.2905-2.446 1.2905" />
      <path d="m123.29 34.22h4.8228" />
      <path d="m128.11 34.22s-2.2968 1.9086-5.7145 3.3591" />
      <path d="m123.68 34.688 4.8432 2.6905" />
      <path d="m116.27 27.448h4.8228" />
      <path d="m121.1 27.448s-2.2968 1.9086-5.7145 3.3591" />
      <path d="m116.74 27.916 4.8432 2.6905" />
      <path d="m116.63 30.212h3.3548" />
      <path
         d="m118.36 30.601v2.2498s-0.0866 0.73774 0.60916 0.73774c0.67015 0 2.8357-0.01163 2.8357-0.01163l-0.52726-1.8837" />
      <path d="m119.98 30.212s-1.426 2.0031-4.4949 3.4536" />
      <path d="m120.08 30.994 1.9159 1.1061" />
      <path d="m121.2 20.713s-2.2968 3.4579-5.7145 6.0857" />
      <path d="m116.66 21.734 3.9924 3.9924" />
      <path d="m121.1 34.22s-2.1234 1.9086-5.283 3.3591" />
      <path d="m116.66 34.733 4.4775 2.6905" />
      <path d="m117.17 36.852v3.2939h2.994" />
      <path d="m120.16 36.852v3.7881" />
      <path d="m115.29 37.932h6.6218" />
      <path d="m117.75 34.077 1.2217 0.70536" />
      <path d="m109.56 27.448h4.8228" />
      <path d="m114.39 27.448s-2.2968 1.9086-5.7145 3.3591" />
      <path d="m110.03 27.916 4.8432 2.6905" />
      <path d="m109.91 30.212h3.3548" />
      <path
         d="m111.65 30.601v2.2498s-0.0866 0.73774 0.60916 0.73774c0.67015 0 2.8357-0.01163 2.8357-0.01163l-0.52726-1.8837" />
      <path d="m113.27 30.212s-1.426 2.0031-4.4949 3.4536" />
      <path d="m113.37 30.994 1.9159 1.1061" />
      <path d="m114.49 20.713s-2.2968 3.4579-5.7145 6.0857" />
      <path d="m109.94 21.734 3.9924 3.9924" />
      <path d="m114.39 34.22s-2.1234 1.9086-5.283 3.3591" />
      <path d="m109.94 34.733 4.4775 2.6905" />
      <path d="m110.46 36.852v3.2939h2.994" />
      <path d="m113.45 36.852v3.7881" />
      <path d="m108.58 37.932h6.6218" />
      <path d="m111.04 34.077 1.2217 0.70536" />
      <path d="m109.94 50.619v1.8045h4.1548" />
      <path d="m114.09 50.619v2.0752" />
      <path d="m112 49.838s-0.0367 1.5161-0.0367 2.7544c0 0.88177-1.346 1.2905-2.446 1.2905" />
      <path d="m109.66 47.851h4.8228" />
      <path d="m114.48 47.851s-2.2968 1.9086-5.7145 3.3591" />
      <path d="m110.05 48.319 4.8432 2.6905" />
      <path d="m112.08 40.841v6.4222" />
      <path d="m114.66 43.287-5.8162 1.5584" />
      <path d="m112.08 47.263-1.9686-1.1366" />
      <g transform="matrix(.49539 0 0 .49911 1.3125 -3.1594)">
         <path d="m207.66 48.213 2.6473 2.6639" />
         <path d="m203.79 50.964h11.305" />
      </g>
      <path d="m107.91 23.488h-5.6002" />
      <path d="m105.11 26.913v-3.4553" />
      <path d="m103.25 30.267v1.8045h4.1548" />
      <path d="m107.4 30.267v2.0752" />
      <path d="m105.31 29.487s-0.0367 1.5161-0.0367 2.7544c0 0.88177-1.346 1.2905-2.446 1.2905" />
      <path d="m102.97 27.499h4.8228" />
      <path d="m107.79 27.499s-2.2968 1.9086-5.7145 3.3591" />
      <path d="m103.36 27.967 4.8432 2.6905" />
      <path d="m104.25 34.139v6.0544l-1.1358-0.65576" />
      <path d="m104.86 36.326s-1.3651 1.7986-2.836 2.3327" />
      <path d="m105.83 34.139v6.2214" />
      <path d="m105.77 36.599 2.3839 1.3819" />
      <path d="m98.393 20.513v6.4222" />
      <path d="m101.4 23.724h-6.0213" />
      <path d="m95.971 27.448h4.8227" />
      <path d="m100.79 27.448s-2.2968 1.9086-5.7145 3.3591" />
      <path d="m96.436 27.916 4.8432 2.6905" />
      <path d="m96.323 30.212h3.3548" />
      <path
         d="m98.06 30.601v2.2498s-0.0866 0.73774 0.60916 0.73774c0.67015 0 2.8357-0.01163 2.8357-0.01163l-0.52726-1.8837" />
      <path d="m99.678 30.212s-1.426 2.0031-4.4949 3.4536" />
      <path d="m99.777 30.994 1.9159 1.1061" />
      <path d="m96.492 36.988v1.8045h4.1548" />
      <path d="m100.64 36.988v2.0752" />
      <path d="m98.549 36.208s-0.0367 1.5161-0.0367 2.7544c0 0.88177-1.346 1.2905-2.446 1.2905" />
      <path d="m96.205 34.22h4.8227" />
      <path d="m101.03 34.22s-2.2968 1.9086-5.7145 3.3591" />
      <path d="m96.599 34.688 4.8432 2.6905" />
      <path d="m90.724 20.608v6.0544l-1.1358-0.65576" />
      <path d="m91.333 22.795s-1.3651 1.7986-2.836 2.3327" />
      <path d="m92.295 20.608v6.2214" />
      <path d="m92.242 23.068 2.3839 1.3819" />
      <path d="m89.647 30.275v1.8045h4.1548" />
      <path d="m93.793 30.275v2.0752" />
      <path d="m91.704 29.495s-0.0367 1.5161-0.0367 2.7544c0 0.88177-1.346 1.2905-2.446 1.2905" />
      <path d="m89.36 27.508h4.8228" />
      <path d="m94.183 27.508s-2.2968 1.9086-5.7145 3.3591" />
      <path d="m89.754 27.975 4.8432 2.6905" />
      <g transform="matrix(.49539 0 0 .49911 -12.2 10.228)">
         <path d="m207.66 48.213 2.6473 2.6639" />
         <path d="m203.79 50.964h11.305" />
      </g>
      <path d="m94.402 36.875h-5.6002" />
      <path d="m91.602 40.3v-3.4553" />
      <path d="m84.875 20.513v6.4222" />
      <path d="m87.886 23.456h-6.0213" />
      <path d="m82.452 27.448h4.8228" />
      <path d="m87.275 27.448s-2.2968 1.9086-5.7145 3.3591" />
      <path d="m82.917 27.916 4.8432 2.6905" />
      <path d="m82.805 30.212h3.3548" />
      <path
         d="m84.542 30.601v2.2498s-0.0866 0.73774 0.60916 0.73774c0.67015 0 2.8357-0.01163 2.8357-0.01163l-0.52726-1.8837" />
      <path d="m86.16 30.212s-1.426 2.0031-4.4949 3.4536" />
      <path d="m86.258 30.994 1.9159 1.1061" />
      <path d="m82.974 36.988v1.8045h4.1548" />
      <path d="m87.119 36.988v2.0752" />
      <path d="m85.03 36.208s-0.0367 1.5161-0.0367 2.7544c0 0.88177-1.346 1.2905-2.446 1.2905" />
      <path d="m82.686 34.22h4.8228" />
      <path d="m87.509 34.22s-2.2968 1.9086-5.7145 3.3591" />
      <path d="m83.08 34.688 4.8432 2.6905" />
      <path d="m82.324 21.095 1.3736 2.3887" />
      <path d="m87.506 20.917s-0.49877 1.6418-1.7813 2.5384" />
      <path d="m84.885 23.33s-1.3818 2.3331-3.3538 3.0176" />
      <path d="m84.885 23.447 3.1022 3.0858" />
      <path d="m85.157 40.841v6.4222" />
      <path d="m87.731 43.287-5.8162 1.5584" />
      <path d="m85.157 47.263-1.9686-1.1366" />
      <path d="m84.84 54.401v6.4222" />
      <path d="m82.481 63.622v3.0514h4.6738" />
      <path d="m87.145 63.622v3.5092" />
      <path d="m84.801 62.204v4.4458" />
      <path d="m82.001 62.141h5.5999" />
      <path d="m82.884 49.345v2.5982h4.1548" />
      <path d="m87.03 49.345v3.2564" />
      <path d="m84.941 48.564s-0.0367 2.3966-0.0367 3.6349c0 0.88177-1.346 1.5504-2.446 1.5504" />
      <path d="m81.675 48.142h6.311" />
      <path d="m81.155 23.456h-6.0214" />
      <path d="m75.594 21.095 1.3736 2.3887" />
      <path d="m80.776 20.917s-0.49877 1.6418-1.7813 2.5384" />
      <path d="m78.15 20.51s0.28029 5.4255-3.1999 6.2296" />
      <path d="m77.611 23.727 3.6217 2.9979" />
      <path d="m75.79 27.448h4.8228" />
      <path d="m80.613 27.448s-2.2968 1.9086-5.7145 3.3591" />
      <path d="m76.255 27.916 4.8432 2.6905" />
      <path d="m76.143 30.212h3.3548" />
      <path
         d="m77.88 30.601v2.2498s-0.0866 0.73774 0.60916 0.73774c0.67015 0 2.8358-0.01163 2.8358-0.01163l-0.52726-1.8837" />
      <path d="m79.498 30.212s-1.426 2.0031-4.4949 3.4536" />
      <path d="m79.596 30.994 1.9159 1.1061" />
      <path d="m71.462 20.513v6.4222" />
      <path d="m74.473 23.456h-6.0213" />
      <path d="m69.039 27.448h4.8227" />
      <path d="m73.862 27.448s-2.2968 1.9086-5.7144 3.3591" />
      <path d="m69.504 27.916 4.8432 2.6905" />
      <path d="m69.392 30.212h3.3548" />
      <path
         d="m71.129 30.601v2.2498s-0.0866 0.73774 0.60916 0.73774c0.67015 0 2.8357-0.01163 2.8357-0.01163l-0.52726-1.8837" />
      <path d="m72.747 30.212s-1.426 2.0031-4.4949 3.4536" />
      <path d="m72.845 30.994 1.9159 1.1061" />
      <path d="m68.911 21.095 1.3736 2.3887" />
      <path d="m74.093 20.917s-0.49877 1.6418-1.7813 2.5384" />
      <path d="m71.472 23.33s-1.3818 2.3331-3.3538 3.0176" />
      <path d="m71.472 23.447 3.1022 3.0858" />
      <path d="m71.658 34.034v6.4222" />
      <path d="m74.232 36.48-5.8162 1.5584" />
      <path d="m71.658 40.456-1.9686-1.1366" />
      <path d="m70.27 40.841s-0.0367 2.5171-0.0367 3.7553c0 2.0866-1.6428 2.3772-1.6428 2.3772" />
      <path d="m72.491 40.841v6.4222" />
      <path d="m74.569 44.95h-6.4222" />
      <path d="m73.789 42.516h-5.0993" />
      <path d="m73.058 47.664v6.4222" />
      <path d="m74.569 50.592h-6.4222" />
      <path d="m71.263 48.477v4.3716" />
      <path d="m69.433 48.477v4.3716" />
      <path d="m74.169 54.559v6.1691" />
      <path d="m68.567 54.559v6.1691" />
      <path d="m74.169 54.559h-5.6015" />
      <path d="m74.169 60.224h-5.6015" />
      <path d="m69.303 56.414h4.1866" />
      <path d="m71.332 55.336s0.05946 2.9241-2.0836 3.9408" />
      <path d="m71.175 56.745 2.3582 2.5657" />
      <path d="m69.579 62.211v4.8367l-1.1358-0.52387" />
      <path d="m69.593 64.262s-0.75336 0.74997-1.6465 1.56" />
      <path d="m71.032 62.087h-2.9338" />
      <path d="m68.025 63.224 1.0296 0.55877" />
      <path d="m69.826 63.734 1.0296-0.55877" />
      <path d="m71.043 65.587-1.4035-0.79837" />
      <path d="m73.343 66.011 1.1446 0.50509v-2.2911h-3.3973" />
      <path d="m71.098 66.573v-2.6075" />
      <path d="m72.724 61.281v6.368" />
      <path d="m71.386 61.849v1.5533h2.6872" />
      <path d="m74.067 61.849v1.7863" />
      <path d="m70.948 68.618v4.0783" />
      <path d="m68.543 68.618v4.0783" />
      <path d="m70.948 68.618h-2.4051" />
      <path d="m70.948 72.192h-2.4051" />
      <path d="m70.978 69.904h3.6125" />
      <path d="m72.728 67.93s0.05131 4.7069-1.7979 6.3437" />
      <path d="m72.593 70.197 2.0348 4.1301" />
      <path d="m69.723 68.618v3.6216" />
      <path d="m64.518 20.513v6.4222" />
      <path d="m67.529 23.456h-6.0213" />
      <path d="m62.096 27.448h4.8227" />
      <path d="m66.918 27.448s-2.2968 1.9086-5.7144 3.3591" />
      <path d="m62.561 27.916 4.8432 2.6905" />
      <path d="m62.448 30.212h3.3548" />
      <path
         d="m64.185 30.601v2.2498s-0.0866 0.73774 0.60916 0.73774c0.67015 0 2.8357-0.01163 2.8357-0.01163l-0.52726-1.8837" />
      <path d="m65.803 30.212s-1.426 2.0031-4.4949 3.4536" />
      <path d="m65.902 30.994 1.9159 1.1061" />
      <path d="m61.967 21.095 1.3736 2.3887" />
      <path d="m67.149 20.917s-0.49877 1.6418-1.7813 2.5384" />
      <path d="m64.529 23.33s-1.3818 2.3331-3.3538 3.0176" />
      <path d="m64.529 23.447 3.1022 3.0858" />
      <path d="m82.974 70.907v1.8045h4.1548" />
      <path d="m87.119 70.907v2.0752" />
      <path d="m85.03 70.127s-0.0367 1.5161-0.0367 2.7544c0 0.88177-1.346 1.2905-2.446 1.2905" />
      <path d="m82.686 68.14h4.8228" />
      <path d="m87.509 68.14s-2.2968 1.9086-5.7145 3.3591" />
      <path d="m83.08 68.608 4.8432 2.6905" />
      <path d="m51.059 20.465v6.4222" />
      <path d="m54.07 23.408h-6.0213" />
      <path d="m48.637 27.4h4.8227" />
      <path d="m53.459 27.4s-2.2968 1.9086-5.7144 3.3591" />
      <path d="m49.101 27.868 4.8432 2.6905" />
      <path d="m48.989 30.164h3.3548" />
      <path
         d="m50.726 30.552v2.2498s-0.0866 0.73774 0.60916 0.73774c0.67015 0 2.8357-0.01163 2.8357-0.01163l-0.52726-1.8837" />
      <path d="m52.344 30.164s-1.426 2.0031-4.4949 3.4536" />
      <path d="m52.442 30.946 1.9159 1.1061" />
      <path d="m48.508 21.047 1.3736 2.3887" />
      <path d="m53.69 20.869s-0.49877 1.6418-1.7813 2.5384" />
      <path d="m51.07 23.282s-1.3818 2.3331-3.3538 3.0176" />
      <path d="m51.07 23.399 3.1022 3.0858" />
      <path d="m51.278 34.034v6.4222" />
      <path d="m53.852 36.48-5.8162 1.5584" />
      <path d="m51.278 40.456-1.9686-1.1366" />
      <path d="m48.496 42.239 1.2016 2.3178" />
      <path d="m53.471 41.61s-1.3458 4.0767-3.1483 5.3985" />
      <path d="m49.625 47.67v2.571h2.7212" />
      <path d="m52.34 47.67v2.9567" />
      <path d="m48.528 48.513h4.8728" />
      <path d="m49.28 50.505v2.9242h3.5655" />
      <path d="m52.838 50.505v3.3628" />
      <path d="m47.843 51.464h6.3847" />
      <path d="m190.86 93.37h11.305" />
      <path d="m190.84 84.898h5.39" />
      <path d="m196.75 84.898h5.39" />
      <path d="m193.8 82.109s0.0994 7.5718-3.4835 10.205" />
      <path d="m193.48 85.815 2.7598 3.5121" />
      <path d="m199.04 82.109s0.0994 7.5718-3.4835 10.205" />
      <path d="m198.74 85.441 3.9427 6.644" />
      <path d="m190.34 98.149v5.142h5.4552" />
      <path d="m195.78 98.149v5.9134" />
      <path d="m193.04 95.927s-0.0482 4.3202-0.0482 7.8488c0 2.5126-1.7672 3.6773-3.2116 3.6773" />
      <path d="m196.77 98.149v5.142h5.4552" />
      <path d="m202.21 98.149v5.9134" />
      <path d="m199.46 94.842v13.437" />
      <path d="m197.54 111.06v3.0514h4.6738" />
      <path d="m202.2 111.06v3.5092" />
      <path d="m199.86 109.65v4.4458" />
      <path d="m197.06 109.58h5.5999" />
      <path d="m196.99 121.15h5.5646" />
      <path d="m196.99 116.96h2.6532" />
      <path d="m199.89 116.96h2.6532" />
      <path d="m198.44 115.58s0.0489 3.7409-1.7147 5.0417" />
      <path d="m198.28 117.41 1.3585 1.7352" />
      <path d="m201.02 115.58s0.0489 3.7409-1.7147 5.0417" />
      <path d="m200.87 117.23 1.9407 3.2825" />
      <path d="m195.18 115.46s-1.8449 1.8738-5.0045 3.3243" />
      <path d="m191.01 115.94 4.4775 2.6905" />
      <path d="m194.96 117.96s-2.019 2.7268-5.0045 3.6028" />
      <path d="m191.46 118.98 4.4775 2.6905" />
      <path d="m190.3 114.5h5.5646" />
      <path d="m190.29 110.31h2.6532" />
      <path d="m193.2 110.31h2.6532" />
      <path d="m191.75 108.94s0.0489 3.7409-1.7147 5.0417" />
      <path d="m191.59 110.77 1.3585 1.7352" />
      <path d="m194.32 108.94s0.0489 3.7409-1.7147 5.0417" />
      <path d="m194.18 110.58 1.9407 3.2825" />
      <path d="m179.67 109.03v5.142h5.4424" />
      <path d="m185.1 109.03v5.9134" />
      <path d="m177.47 110.71h9.7457" />
      <path d="m178.98 114.7v5.8483h7.1311" />
      <path d="m186.09 114.7v6.7257" />
      <path d="m176.1 116.62h12.769" />
      <path d="m177.88 124.55h9.7449" />
      <path d="m176.37 132.63h12.768" />
      <path d="m176.88 97.148h4.0062" />
      <path d="m175.98 106.21 5.9445-1.201" />
      <path d="m176.6 101.58h4.5726" />
      <path d="m180.89 97.148-0.89888 8.1469" />
      <path d="m178.23 97.174s0.13301 4.6924-1.1306 8.9157" />
      <path d="m183.07 96s0.0972 9.3341-2.5046 11.48" />
      <path d="m181.12 96h6.7967" />
      <path d="m186.01 98.868v6.7203s0.0775 1.5461 1.1163 1.5461c1.0005 0 1.8001-0.0236 1.8001-0.0236l-0.78721-3.819" />
      <path d="m182.97 98.868h3.0398" />
      <path d="m179.22 85.089 6.3364 6.3364" />
      <path d="m170.69 90.193 3.6301 1.6713v-7.5811h-10.775" />
      <path d="m163.57 91.864v-8.419" />
      <path d="m169.02 81.69v12.736" />
      <path d="m165.38 99.064h8.6456" />
      <path d="m169.05 95.872s0.15944 8.667-5.5876 11.681" />
      <path d="m168.57 99.686 6.3241 7.6049" />
      <path d="m165.78 96.765s0.21258 3.3005-1.7537 4.7341" />
      <path d="m166.09 111.97 6.3364 6.3364" />
      <path d="m165.8 124.74 8.7027-2.0115" />
      <path d="m165.8 124.74s0.55147 8.8284-3.0354 10.166" />
      <path d="m151.54 84.723h8.4558" />
      <path d="m159.99 84.723-2.2701 8.6585" />
      <path d="m154.6 84.611s-0.97643 6.6055-3.542 9.1711" />
      <path d="m153.56 81.426s-0.51191 1.5882-2.0236 3.2968" />
      <path d="m157.72 93.381-4.2088-2.4299" />
      <path d="m149.09 93.915h12.769" />
      <path d="m161.72 128.2h-12.207" />
      <path d="m150.44 123.41 2.7845 4.8492" />
      <path d="m160.95 123.05s-1.0111 3.3328-3.6111 5.1529" />
      <path d="m155.62 122.22s0.5682 11.014-6.4868 12.646" />
      <path d="m154.53 128.75 7.342 6.0858" />
      <path d="m138.42 126.06h8.6456" />
      <path d="m142.08 122.87s0.15944 8.667-5.5876 11.681" />
      <path d="m141.61 126.68 6.3241 7.6049" />
      <path d="m138.82 123.76s0.21258 3.3006-1.7537 4.7341" />
      <path d="m137.98 86.628h9.8803" />
      <path d="m147.86 86.628-2.2701 7.521" />
      <path d="m141.31 86.655s0.28348 2.8789-2.4096 6.0386" />
      <path d="m139.18 82.153s-0.45151 3.9958-3.1446 8.3813" />
      <path d="m138.75 84.37h5.9368" />
      <path d="m144.39 86.65s0.28348 3.1896-2.4096 6.6903" />
      <path d="m145.59 94.149-4.2088-1.848" />
      <path d="m136.04 82.153h9.7093" />
      <path d="m137.46 103.45h8.5385" />
      <path d="m135.48 113.41h12.769" />
      <path d="m136.85 108.36h9.7457" />
      <path d="m146 103.45-1.9158 9.998" />
      <path d="m140.34 103.48s0.28348 5.1972-2.4096 9.8746" />
      <path d="m125.59 82.14v5.142h5.4424" />
      <path d="m131.02 82.14v5.9134" />
      <path d="m123.39 83.826h9.7457" />
      <path d="m124.9 87.809v5.8483h7.1311" />
      <path d="m132.01 87.809v6.7257" />
      <path d="m122.02 89.727h12.769" />
      <path d="m125.7 124.44 5.3789 3.2619s-4.5514-0.31983-5.1424 1.2222c-0.94385 2.7511 2.5534 3.7949 5.1293 4.412" />
      <path d="m109.65 107.97h9.9999" />
      <path d="m114.64 105.41s0.18442 6.928-6.4628 9.3371" />
      <path d="m114.16 108.16 7.3147 6.079" />
      <path d="m113.08 101.93 2.6473 2.6639" />
      <path d="m109.21 104.68h11.305" />
      <path d="m97.615 104.68h9.7235" />
      <path d="m107.34 104.68-2.2701 9.8894" />
      <path d="m100.5 104.72s0.28348 3.7854-2.4096 7.9402" />
      <path d="m97.79 103.01s-0.36997 3.7887-2.5767 7.947" />
      <path d="m103.57 104.71s0.28348 4.1939-2.4096 8.797" />
      <path d="m105.07 114.57-4.2088-2.4299" />
      <path d="m82.235 134.03h11.305" />
      <path d="m82.221 125.56h5.39" />
      <path d="m88.127 125.56h5.39" />
      <path d="m85.179 122.77s0.0994 7.5718-3.4835 10.205" />
      <path d="m84.86 126.48 2.7598 3.5121" />
      <path d="m90.414 122.77s0.0994 7.5718-3.4835 10.205" />
      <path d="m90.117 126.11 3.9427 6.644" />
      <path d="m82.199 85.367h5.39" />
      <path d="m88.105 85.367h5.39" />
      <path d="m85.157 82.175s0.0994 8.667-3.4835 11.681" />
      <path d="m84.838 86.417 2.7598 4.0201" />
      <path d="m90.392 82.175s0.0994 8.667-3.4835 11.681" />
      <path d="m90.095 85.989 3.9427 7.6049" />
      <path d="m82.408 83.068s0.13253 3.3005-1.0933 4.7341" />
      <path d="m82.408 83.068s0.13253 3.3005-1.0933 4.7341" />
      <path d="m88.355 83.068s0.13253 3.3005-1.0933 4.7341" />
      <path d="m72.325 83.002s-0.0734 3.7466-0.0734 6.2235c0 4.1736-3.2856 4.7549-3.2856 4.7549" />
      <path d="m76.767 83.002v11.558" />
      <path d="m80.921 88.551h-12.844" />
      <path d="m79.362 82.977h-10.198" />
      <path d="m68.197 126.32h3.959" />
      <path d="m75.814 125.95h4.595" />
      <path d="m70.37 123.46s0.07301 7.7525-2.5586 10.448" />
      <path d="m70.136 127.26 2.0271 3.596" />
      <path d="m77.764 122.75s0.08474 8.667-2.9697 11.681" />
      <path d="m77.51 126.57 3.3612 7.6049" />
      <path d="m72.191 124.77h3.7989" />
      <path d="m71.801 133.37 4.578-1.3019" />
      <path d="m72.496 126.73 0.50682 4.5116" />
      <path d="m75.401 124.82s-0.19307 5.437-1.255 7.8664" />
      <path d="m60.866 81.943s-1.0783 3.6298-6.1241 6.8397" />
      <path d="m60.648 82.573 6.4834 5.3848" />
      <path d="m60.917 84.751v9.7628" />
      <path d="m60.917 94.514-2.9759-1.7278" />
      <path d="m56.288 88.291 2.5606 3.2717" />
      <path d="m65.349 87.184s-1.2013 2.575-3.0801 4.8768" />
      <path d="m55.178 98.999h5.39" />
      <path d="m61.085 98.999h5.39" />
      <path d="m58.137 95.806s0.0994 8.667-3.4835 11.681" />
      <path d="m57.818 100.05 2.7598 4.0201" />
      <path d="m63.372 95.806s0.0994 8.667-3.4835 11.681" />
      <path d="m63.074 99.62 3.9427 7.6049" />
      <path d="m55.388 96.7s0.13253 3.3006-1.0933 4.7341" />
      <path d="m55.388 96.7s0.13253 3.3006-1.0933 4.7341" />
      <path d="m61.335 96.7s0.13253 3.3006-1.0933 4.7341" />
      <path d="m60.903 112.91s-0.56939 1.8997-3.2337 3.5797" />
      <path d="m60.788 113.23 3.4234 2.8182" />
      <path d="m55.45 134.03h11.305" />
      <path d="m55.436 125.56h5.39" />
      <path d="m61.343 125.56h5.39" />
      <path d="m58.395 122.77s0.0994 7.5718-3.4835 10.205" />
      <path d="m58.076 126.48 2.7598 3.5121" />
      <path d="m63.63 122.77s0.0994 7.5718-3.4835 10.205" />
      <path d="m63.332 126.11 3.9427 6.644" />
      <path d="m36.68 84.872v5.3192h8.3099" />
      <path d="m44.972 84.872v6.6666" />
      <path d="m40.794 83.275s-0.0734 4.9064-0.0734 7.4414c0 1.8052-2.692 3.1739-4.8922 3.1739" />
      <path d="m34.263 82.411h12.622" />
      <path d="m45.45 124.62v8.2405" />
      <path d="m36.515 124.62v8.2405" />
      <path d="m45.45 124.62h-8.9345" />
      <path d="m45.45 131.72h-8.9345" />
      <path d="m34.558 128.23h12.769" />
      <path d="m40.942 122.09v13.338" />
      <path d="m22.41 104.12 2.4621 4.6995" />
      <path d="m32.603 102.84s-2.7576 8.2658-6.4508 10.946" />
      <path d="m31.874 83.95v8.2405" />
      <path d="m22.939 83.95v8.2405" />
      <path d="m31.874 83.95h-8.9345" />
      <path d="m31.874 91.044h-8.9345" />
      <path d="m20.982 87.557h12.769" />
      <path d="m27.366 81.418v13.338" />
      <path d="m28.588 127.54 1.9229 1.261v-5.7201h-5.7075" />
      <path d="m24.816 128.8v-6.3523" />
      <path d="m25.248 128.17s-0.08182 1.9098-0.08182 3.6469c0 2.9271-3.6627 3.3348-3.6627 3.3348" />
      <path d="m30.2 128.97v6.5948" />
      <path d="m33.95 131.88h-12.844" />
      <path d="m30.2 128.97h-4.9133" />
      <path d="m30.2 135.56-2.4873-1.3278" />
      <path d="m32.3 125.94h-9.6188" />
      <path d="m19.343 88.472v4.2122" />
      <path d="m8.3348 88.472v4.2122" />
      <path d="m19.343 88.472h-11.008" />
      <path d="m19.343 92.098h-11.008" />
      <path d="m13.799 81.418v13.338" />
      <path d="m17.979 83.307v4.2122" />
      <path d="m9.6984 83.307v4.2122" />
      <path d="m17.979 83.307h-8.2806" />
      <path d="m17.979 86.933h-8.2806" />
      <path d="m13.185 122.43s-1.5726 3.9693-5.308 6.2387" />
      <path d="m17.54 123.94s-3.6586 9.2239-9.6819 11.005" />
      <path d="m10.468 127.77 9.448 7.3878" />
      <path d="m17.54 123.94-4.9133 0.0518" />
      <path d="m11.607 142.52v6.4222" />
      <path d="m9.0613 143.44v3.8283" />
      <path d="m141.61 138.83h-6.0213" />
      <path d="m128.25 138.83h-6.0213" />
      <path d="m113.4 135.62v6.4222" />
      <path d="m111.61 136.43v4.3716" />
      <path d="m109.78 136.43v4.3716" />
      <path d="m99.931 135.62v6.4222" />
      <path d="m98.137 136.43v4.3716" />
      <path d="m96.307 136.43v4.3716" />
      <path d="m86.209 135.62v6.4222" />
      <path d="m84.414 136.43v4.3716" />
      <path d="m82.584 136.43v4.3716" />
      <path d="m72.737 135.62v6.4222" />
      <path d="m70.942 136.43v4.3716" />
      <path d="m69.112 136.43v4.3716" />
      <path d="m59.298 135.62v6.4222" />
      <path d="m57.503 136.43v4.3716" />
      <path d="m55.673 136.43v4.3716" />
      <path d="m40.502 145.63h-6.0213" />
      <path d="m40.27 136.34h-5.5999" />
      <path d="m37.47 141.77v-5.4837" />
      <path d="m26.831 136.34h-5.5999" />
      <path d="m24.031 141.77v-5.4837" />
      <path d="m25.826 142.43v6.4222" />
      <path d="m24.031 143.25v4.3716" />
      <path d="m22.201 143.25v4.3716" />
      <path d="m153.16 135.67v6.4222" />
      <path d="m151.01 136.59v3.8283" />
      <path d="m155.1 138.49h-6.0213" />
      <path d="m162.96 136.31 3.4594-8e-3s-3.3441 2.7682-3.3441 3.9379c0 1.64 1.8835 1.2616 5.2104 1.2616" />
      <path d="m168.29 141.5-0.75755-2.8272" />
      <path d="m182.08 138.83h-6.0213" />
      <path d="m176.32 143.13 3.4594-8e-3s-3.3441 2.7682-3.3441 3.9379c0 1.64 1.8835 1.2616 5.2104 1.2616" />
      <path d="m181.65 148.32-0.75755-2.8272" />
      <path d="m13.194 141.64h-5.5999" />
      <path d="m10.395 136.21v5.4837" />
      <path d="m62.315 137.53h4.261" />
      <path d="m64.122 135.95s0.07858 4.289-2.7538 5.7804" />
      <path d="m63.887 137.83 3.1168 3.7634" />
      <path d="m62.512 136.39s0.10477 1.6333-0.86431 2.3427" />
      <path d="m62.315 144.18h4.261" />
      <path d="m64.122 142.6s0.07858 4.289-2.7538 5.7804" />
      <path d="m63.887 144.49 3.1168 3.7634" />
      <path d="m62.512 143.04s0.10477 1.6333-0.86431 2.3427" />
      <path d="m62.315 151h4.261" />
      <path d="m64.122 149.42s0.07858 4.289-2.7538 5.7804" />
      <path d="m63.887 151.31 3.1168 3.7634" />
      <path d="m62.512 149.86s0.10477 1.6333-0.86431 2.3427" />
      <path d="m62.315 157.65h4.261" />
      <path d="m64.122 156.07s0.07858 4.289-2.7538 5.7804" />
      <path d="m63.887 157.96 3.1168 3.7634" />
      <path d="m62.512 156.51s0.10477 1.6333-0.86431 2.3427" />
      <path d="m62.315 164.64h4.261" />
      <path d="m64.122 163.06s0.07858 4.289-2.7538 5.7804" />
      <path d="m63.887 164.94 3.1168 3.7634" />
      <path d="m62.512 163.5s0.10477 1.6333-0.86431 2.3427" />
      <g transform="matrix(.49998 0 0 .49389 -6.7457 132.11)">
         <g transform="matrix(1 0 0 1.0956 .18899 -1.8256)">
            <path d="m172.82 11.783v7.3142" />
            <path d="m164.73 11.783v7.3142" />
            <path d="m172.82 11.783h-8.0867" />
            <path d="m172.82 18.08h-8.0867" />
            <path d="m168.74 11.814v6.2725" />
         </g>
         <path d="m175.42 14.528h-12.906" />
      </g>
      <path d="m74.881 138.02v-1.848h5.7046v1.848" />
      <path d="m75.898 144.18h4.261" />
      <path d="m77.706 142.6s0.07858 4.289-2.7538 5.7804" />
      <path d="m77.471 144.49 3.1168 3.7634" />
      <path d="m76.095 143.04s0.10477 1.6333-0.86431 2.3427" />
      <path d="m75.898 151h4.261" />
      <path d="m77.706 149.42s0.07858 4.289-2.7538 5.7804" />
      <path d="m77.471 151.31 3.1168 3.7634" />
      <path d="m76.095 149.86s0.10477 1.6333-0.86431 2.3427" />
      <path d="m89.426 144.18h4.261" />
      <path d="m91.234 142.6s0.0786 4.289-2.7538 5.7804" />
      <path d="m90.998 144.49 3.1168 3.7634" />
      <path d="m89.623 143.04s0.10477 1.6333-0.86432 2.3427" />
      <path d="m89.426 151h4.261" />
      <path d="m91.234 149.42s0.0786 4.289-2.7538 5.7804" />
      <path d="m90.998 151.31 3.1168 3.7634" />
      <path d="m89.623 149.86s0.10477 1.6333-0.86432 2.3427" />
      <path d="m88.725 136.87h4.9511" />
      <path d="m91.197 135.59s0.0913 3.463-3.1999 4.6672" />
      <path d="m90.957 136.97 3.6217 3.0386" />
      <path d="m89.31 140.14h3.6851" />
      <path d="m91.234 138.24v3.7957" />
      <path d="m103.29 136.9h4.4498" />
      <path d="m107.74 136.9-1.1243 4.8402" />
      <path d="m104.49 136.91s0.14039 1.8527-1.1934 3.8862" />
      <path d="m103.43 136.08s-0.22361 1.8543-1.5574 3.8895" />
      <path d="m101.78 136.08h1.6496" />
      <path d="m106.01 136.91s0.1404 2.0526-1.1934 4.3055" />
      <path d="m106.61 141.74-2.0844-1.1893" />
      <path d="m102.88 144.98h4.8932" />
      <path d="m107.77 144.98-1.1243 3.681" />
      <path d="m104.53 145s0.1404 1.409-1.1934 2.9555" />
      <path d="m103.47 142.79s-0.22361 1.9557-1.5574 4.1021" />
      <path d="m103.26 143.88h2.9402" />
      <path d="m106.05 144.99s0.14039 1.5611-1.1934 3.2744" />
      <path d="m106.64 148.66-2.0844-0.90447" />
      <path d="m101.91 142.79h4.8086" />
      <path d="m115.68 138.69h4.9511" />
      <path d="m118.15 137.44s0.0913 3.4051-3.1998 4.5892" />
      <path d="m117.91 138.79 3.6216 2.9879" />
      <path d="m117.37 135.73 1.3107 1.3093" />
      <path d="m115.46 137.08h5.5972" />
      <g transform="matrix(.49939 0 0 .49999 47.404 138.79)">
         <g transform="matrix(1 0 0 1.0956 .18899 -1.8256)">
            <path d="m172.82 11.783v7.3142" />
            <path d="m164.73 11.783v7.3142" />
            <path d="m172.82 11.783h-8.0867" />
            <path d="m172.82 18.08h-8.0867" />
            <path d="m168.74 11.814v6.2725" />
         </g>
         <path d="m175.42 14.528h-12.906" />
      </g>
      <path d="m128.93 144.78v-1.8708h5.6978v1.8708" />
      <path d="m129.85 151.69h4.9341" />
      <path d="m134.78 151.69-1.1337 3.7604" />
      <path d="m131.51 151.7s0.14157 1.4394-1.2033 3.0192" />
      <path d="m130.44 149.45s-0.22547 1.9978-1.5704 4.1906" />
      <path d="m130.23 150.56h2.9648" />
      <path d="m133.05 151.7s0.14156 1.5947-1.2033 3.345" />
      <path d="m133.65 155.45-2.1018-0.92397" />
      <path d="m128.88 149.45h4.8487" />
      <path d="m130.58 139.5s-0.63783 1.4753-1.6688 1.975" />
      <path d="m130.02 136.29v3.0257h3.5656" />
      <path d="m133.58 136.29v3.4796" />
      <path d="m128.58 137.28h6.3848" />
      <path d="m132.92 139.5 1.3799 1.9957" />
      <path d="m143.43 137.54h4.3228" />
      <path d="m145.26 135.95s0.0797 4.3129-2.7938 5.8126" />
      <path d="m145.02 137.85 3.162 3.7844" />
      <path d="m143.63 136.39s0.10629 1.6424-0.87686 2.3558" />
      <path d="m143.31 151.77h4.9401" />
      <path d="m148.25 151.77-1.1351 3.7426" />
      <path d="m144.98 151.78s0.14174 1.4326-1.2048 3.0049" />
      <path d="m143.91 149.54s-0.22575 1.9884-1.5723 4.1707" />
      <path d="m143.7 150.65h2.9684" />
      <path d="m146.51 151.78s0.14174 1.5872-1.2048 3.3292" />
      <path d="m147.11 155.51-2.1044-0.9196" />
      <path d="m142.34 149.54h4.8546" />
      <path d="m143.1 143.03h4.2692" />
      <path d="m142.11 147.99h6.3847" />
      <path d="m142.79 145.47h4.8728" />
      <path d="m147.37 143.03-0.95789 4.9752" />
      <path d="m144.54 143.04s0.14174 2.5862-1.2048 4.9138" />
      <path d="m88.725 136.87h4.9511" />
      <path d="m91.197 135.59s0.0913 3.463-3.1999 4.6672" />
      <path d="m90.957 136.97 3.6217 3.0386" />
      <path d="m89.31 140.14h3.6851" />
      <path d="m91.234 138.24v3.7957" />
      <path d="m161.36 143.77v2.6911" />
      <path d="m156.36 143.77v2.6911" />
      <path d="m161.36 143.77h-5.0012" />
      <path d="m161.36 146.09h-5.0012" />
      <path d="m159.79 139.87 1.8046 0.83567v-3.7907h-5.3563" />
      <path d="m156.25 140.71v-4.2096" />
      <path d="m158.96 135.62v6.368" />
      <path d="m158.96 142.6s0.40387 5.7403-3.2095 6.1078" />
      <path d="m158.97 146.72 2.8947 1.8481" />
      <path d="m156.21 150.48h4.9511" />
      <path d="m158.68 149.2s0.0913 3.463-3.1999 4.6672" />
      <path d="m158.44 150.58 3.6217 3.0386" />
      <path d="m156.8 153.75h3.6851" />
      <path d="m158.72 151.85v3.7957" />
      <path d="m156.21 150.48h4.9511" />
      <path d="m158.68 149.2s0.0913 3.463-3.1999 4.6672" />
      <path d="m158.44 150.58 3.6217 3.0386" />
      <path d="m156.8 153.75h3.6851" />
      <path d="m158.72 151.85v3.7957" />
      <path d="m174.88 157.25v2.6911" />
      <path d="m169.88 157.25v2.6911" />
      <path d="m174.88 157.25h-5.0012" />
      <path d="m174.88 159.57h-5.0012" />
      <path d="m173.31 153.35 1.8046 0.83567v-3.7907h-5.3563" />
      <path d="m169.77 154.19v-4.2096" />
      <path d="m172.48 149.1v6.368" />
      <path d="m172.48 156.08s0.40387 5.7403-3.2095 6.1078" />
      <path d="m172.49 160.2 2.8947 1.8481" />
      <path d="m169.73 163.96h4.9511" />
      <path d="m172.21 162.68s0.0913 3.463-3.1999 4.6672" />
      <path d="m171.97 164.06 3.6217 3.0386" />
      <path d="m170.32 167.23h3.6851" />
      <path d="m172.24 165.33v3.7957" />
      <path d="m169.73 163.96h4.9511" />
      <path d="m172.21 162.68s0.0913 3.463-3.1999 4.6672" />
      <path d="m171.97 164.06 3.6217 3.0386" />
      <path d="m170.32 167.23h3.6851" />
      <path d="m172.24 165.33v3.7957" />
      <path d="m170.43 137.54h4.3228" />
      <path d="m172.26 135.95s0.0797 4.3129-2.7938 5.8126" />
      <path d="m172.03 137.85 3.162 3.7844" />
      <path d="m170.63 136.39s0.10629 1.6424-0.87686 2.3558" />
      <path d="m170.1 143.03h4.2692" />
      <path d="m169.11 147.99h6.3847" />
      <path d="m169.8 145.47h4.8728" />
      <path d="m174.37 143.03-0.95789 4.9752" />
      <path d="m171.54 143.04s0.14174 2.5862-1.2048 4.9138" />
      <path d="m188.64 135.87v6.1691" />
      <path d="m183.04 135.87v6.1691" />
      <path d="m188.64 135.87h-5.6015" />
      <path d="m188.64 141.53h-5.6015" />
      <path d="m183.67 137.42h4.1866" />
      <path d="m187.85 137.42s-0.69139 0.85528-2.3134 1.9027" />
      <path d="m184.45 138.04 2.3582 2.5657" />
      <path d="m184.87 142.71s0.2923 5.3603-1.6089 6.036" />
      <path
         d="m186.53 142.69v4.7673s-0.0906 1.1418 0.63728 1.1418c0.70109 0 1.7927-0.0115 1.7927-0.0115l-0.55161-1.8685" />
      <path d="m185.64 144.83s-1.9235 1.2797-2.9545 1.7794" />
      <path d="m186.79 144.49 1.8494 1.5706" />
      <path d="m186.16 149.16v6.4222" />
      <path d="m188.74 151.61-5.8162 1.5584" />
      <path d="m186.16 155.58-1.9686-1.1366" />
      <path d="m184.31 157.59 3.0744 3.0744" />
      <path d="m188.27 163.93v4.0894" />
      <path d="m183.84 163.93v4.0894" />
      <path d="m188.27 163.93h-4.4338" />
      <path d="m188.27 167.45h-4.4338" />
      <path d="m182.87 165.72h6.3365" />
      <path d="m186.04 162.67v6.619" />
      <path d="m42.23 137.29v2.653h4.1549" />
      <path d="m46.376 137.29v3.325" />
      <path d="m44.287 136.49s-0.0367 2.4471-0.0367 3.7114c0 0.90034-1.346 1.583-2.4461 1.583" />
      <path d="m41.021 136.06h6.3112" />
      <path d="m46.536 143.6v4.11" />
      <path d="m42.068 143.6v4.11" />
      <path d="m46.536 143.6h-4.4672" />
      <path d="m46.536 147.13h-4.4672" />
      <path d="m41.09 145.39h6.3843" />
      <path d="m44.282 142.33v6.6524" />
      <path d="m44.258 151.5s-0.278 0.91021-1.5788 1.7151" />
      <path d="m44.202 151.66 1.6715 1.3503" />
      <path d="m46.3 156.19v2.8197" />
      <path d="m42.395 156.19v2.8197" />
      <path d="m46.3 156.19h-3.9055" />
      <path d="m46.3 158.62h-3.9055" />
      <path d="m42.851 158.88v2.9242h2.994" />
      <path d="m45.839 158.88v3.3628" />
      <path d="m41.195 159.84h6.232" />
      <path d="m44.328 156.21v2.4181" />
      <path d="m46.3 157.43h-3.9055" />
      <path d="m28.277 157.06 1.2311 2.3447" />
      <path d="m33.374 156.43s-1.3788 4.124-3.2254 5.4612" />
      <path d="m33.009 136.8v4.1114" />
      <path d="m28.542 136.8v4.1114" />
      <path d="m33.009 136.8h-4.4673" />
      <path d="m33.009 140.34h-4.4673" />
      <path d="m27.563 138.59h6.3844" />
      <path d="m30.756 135.53v6.6546" />
      <path d="m31.367 165.19 0.96147 0.62915v-2.8539h-2.8538" />
      <path d="m29.481 165.82v-3.1693" />
      <path d="m29.696 165.51s-0.04091 0.95286-0.04091 1.8195c0 1.4604-1.8313 1.6638-1.8313 1.6638" />
      <path d="m32.172 165.91v3.2903" />
      <path d="m34.047 167.36h-6.4221" />
      <path d="m32.172 165.91h-2.4567" />
      <path d="m32.172 169.2-1.2436-0.66246" />
      <path d="m33.223 164.4h-4.8094" />
      <path d="m29.349 142.61v2.571h2.7212" />
      <path d="m32.064 142.61v2.9567" />
      <path d="m28.252 143.46h4.8728" />
      <path d="m29.004 145.45v2.9242h3.5655" />
      <path d="m32.562 145.45v3.3628" />
      <path d="m27.567 146.41h6.3847" />
      <path d="m31.184 149.13v6.4222" />
      <path d="m33.758 151.58-5.8162 1.5584" />
      <path d="m31.184 155.56-1.9686-1.1366" />
      <path d="m17.163 135.72v6.4222" />
      <path d="m14.513 148.35h5.5646" />
      <path d="m14.506 144.16h2.6532" />
      <path d="m17.413 144.16h2.6532" />
      <path d="m15.962 142.78s0.0489 3.7409-1.7147 5.0417" />
      <path d="m15.805 144.61 1.3585 1.7352" />
      <path d="m18.539 142.78s0.0489 3.7409-1.7147 5.0417" />
      <path d="m18.392 144.43 1.9407 3.2825" />
      <path d="m17.163 149.25v6.4222" />
      <path d="m16.94 156s-0.7777 1.9608-2.6251 3.0818" />
      <path d="m19.094 156.74s-1.8094 4.5565-4.7882 5.4362" />
      <path d="m15.596 158.64 4.6725 3.6494" />
      <path d="m19.094 156.74-2.4299 0.0256" />
      <path d="m216.41 7.296v12.736" />
      <path d="m210.96 23.993h10.462" />
      <path d="m216.44 21.031s0.15944 8.667-5.5876 11.681" />
      <path d="m215.96 24.845 6.3241 7.6049" />
      <path d="m219.2 34.151v12.844" />
      <path d="m213.84 35.99v7.6562" />
      <path d="m211.08 48.878 7.0124-0.01641s-6.7789 5.6768-6.7789 8.0755c0 3.363 3.818 2.5871 10.562 2.5871" />
      <path d="m221.87 59.524-1.5356-5.7977" />
      <path d="m220.81 61.305s-3.722 3.8096-10.097 6.7585" />
      <path d="m212.41 62.278 9.0334 5.4699" />
      <path d="m220.39 66.389s-4.0732 5.5438-10.097 7.3248" />
      <path d="m213.31 68.459 9.0334 5.4699" />
      <path d="m213.08 75.435s-0.58049 3.4626-3.2967 6.5245" />
      <path d="m212.96 76.037 3.4902 5.1367" />
      <path d="m213.11 78.114v9.3129" />
      <path d="m213.11 87.427-1.602-1.6482" />
      <path d="m210.62 81.491 1.3784 3.1209" />
      <path d="m215.5 80.436s-0.64671 2.4563-1.6581 4.6521" />
      <path d="m218.94 74.893s-0.96416 3.9986-3.2544 6.2848" />
      <path d="m221.61 76.405s-2.2431 9.292-5.9361 11.086" />
      <path d="m217.27 80.266 5.7928 7.4422" />
      <path d="m221.61 76.405-3.0124 0.05218" />
      <path d="m215.67 93.419s-1.5726 2.4329-5.308 3.8239" />
      <path d="m220.03 94.339s-3.6586 5.6536-9.6819 6.7452" />
      <path d="m212.96 96.688 9.448 4.5281" />
      <path d="m220.03 94.339-4.9133 0.03175" />
      <path d="m221.47 88.488s-4.2959 3.6908-10.688 6.4955" />
      <path d="m212.48 89.481 9.0586 5.2026" />
      <path d="m214.69 88.211 2.4717 1.364" />
      <path d="m215.6 102.6s-2.4883 4.5563-5.8122 6.5245" />
      <path d="m210.79 103.85 4.7007 4.0583" />
      <path d="m213.11 107.16v7.4354" />
      <path d="m213.11 114.59-1.602-1.6482" />
      <path d="m213.79 109.01 2.1392 2.6578" />
      <path d="m211.64 108.87s-0.64671 2.4563-1.6581 4.6521" />
      <path d="m221.99 104.59v9.0746" />
      <path d="m216 104.59v9.0746" />
      <path d="m221.99 104.59h-5.9923" />
      <path d="m221.99 112.4h-5.9923" />
      <path d="m218.96 104.63v7.7821" />
      <path d="m221.99 108.58h-5.9923" />
      <path d="m150.22 36.988v1.8045h4.1548" />
      <path d="m154.36 36.988v2.0752" />
      <path d="m152.27 36.208s-0.0367 1.5161-0.0367 2.7544c0 0.88177-1.346 1.2905-2.446 1.2905" />
      <path d="m149.93 34.22h4.8228" />
      <path d="m154.75 34.22s-2.2968 1.9086-5.7145 3.3591" />
      <path d="m150.32 34.688 4.8432 2.6905" />
      <path d="m221.47 116.1s-4.9388 3.9144-11.331 6.7191" />
      <path d="m212.16 117.25 10.428 5.51" />
      <path d="m214.69 115.83 2.4717 1.364" />
      <path d="m220.46 121.78v6.36" />
      <path d="m212.68 121.78v6.36" />
      <path d="m220.46 121.78h-7.7811" />
      <path d="m220.46 127.26h-7.7811" />
      <path d="m216.53 121.81v5.4542" />
      <path d="m220.46 124.58h-7.7811" />
      <path d="m213.28 130.41v10.464l-2.31-1.1334" />
      <path d="m213.31 134.85s-1.5322 1.6225-3.3486 3.375" />
      <path d="m210.12 132.61 2.0941 1.2089" />
      <path d="m213.78 133.71 2.0941-1.2089" />
      <path d="m216.26 137.48-2.8545-1.7272" />
      <path d="m221.5 129.27v12.736" />
      <path d="m222.92 136.26-7.3813 2.5012" />
      <path d="m217.25 130.44v7.5374" />
      <path d="m216.35 142.98s-1.0783 3.6298-6.1241 6.8397" />
      <path d="m216.13 143.62 6.4834 5.3848" />
      <path d="m220.46 148.73v6.36" />
      <path d="m212.68 148.73v6.36" />
      <path d="m220.46 148.73h-7.7811" />
      <path d="m220.46 154.2h-7.7811" />
      <path d="m216.53 148.75v5.4542" />
      <path d="m220.46 151.53h-7.7811" />
   </g>
</svg>