<?xml version="1.0" encoding="UTF-8" standalone="no"?>
<svg
   width="100%"
   height="100%"
   viewBox="0 0 91 91"
   version="1.1"
   xml:space="preserve"
   style="fill-rule:evenodd;clip-rule:evenodd;"
   id="svg293"
   xmlns="http://www.w3.org/2000/svg"
   xmlns:svg="http://www.w3.org/2000/svg"><defs
   id="defs297">
        
        
        
        
        
    
            
        
            
        
            
        
            
        
            
        </defs>
    <path
   d="M0,0L90.709,0L90.709,90.709L0,90.709"
   style="fill:rgb(255,170,170);fill-rule:nonzero;"
   id="path268" />
    <path
   d="M7.065,7.065L83.644,7.065L83.644,83.644L7.065,83.644"
   style="fill:rgb(170,255,255);fill-rule:nonzero;"
   id="path270" />
    <path
   d="M 72.877579,81.732199 64.330932,70.938922"
   style="fill:none;fill-rule:nonzero;stroke:#000000;stroke-width:3.85282px"
   id="path284" /><path
   d="m 47.861867,19.190428 c 0,0 -0.281231,16.151099 -0.281231,30.838807 0,24.752065 -12.585106,28.199028 -12.585106,28.199028"
   style="fill:none;fill-rule:nonzero;stroke:#000000;stroke-width:3.85281px"
   id="path272" /><path
   d="m 72.877579,24.24129 -25.093134,0"
   style="fill:none;fill-rule:nonzero;stroke:#000000;stroke-width:3.85281px"
   id="path276" /><path
   d="M 72.877579,24.24129 V 81.736512"
   style="fill:none;fill-rule:nonzero;stroke:#000000;stroke-width:3.85281px"
   id="path280" /><path
   d="M 81.763311,50.54643 H 37.628164"
   style="fill:none;fill-rule:nonzero;stroke:#000000;stroke-width:3.85281px"
   id="path288" />
<path
   d="M 76.796243,12.99141 H 42.595232"
   style="fill:none;fill-rule:nonzero;stroke:#000000;stroke-width:3.853;stroke-miterlimit:4;stroke-dasharray:none"
   id="path38921" /><path
   d="M 12.913915,66.113412 V 20.586537"
   id="path40477"
   style="fill:none;stroke:#000000;stroke-width:3.853;stroke-miterlimit:4;stroke-dasharray:none" /><path
   d="m 26.634775,57.028802 6.994536,9.038105 m 0,0 V 25.070441 H 12.868567"
   id="path40479"
   style="fill:none;stroke:#000000;stroke-width:3.853;stroke-miterlimit:4;stroke-dasharray:none" /><path
   d="m 23.417735,11.065 v 68.87"
   id="path40481"
   style="fill:none;stroke:#000000;stroke-width:3.853;stroke-miterlimit:4;stroke-dasharray:none" /></svg>
