<?xml version="1.0" encoding="UTF-8" standalone="no"?>
<svg
   width="100%"
   height="100%"
   viewBox="0 0 91 91"
   version="1.1"
   xml:space="preserve"
   style="fill-rule:evenodd;clip-rule:evenodd;"
   id="svg41567"
   xmlns="http://www.w3.org/2000/svg"
   xmlns:svg="http://www.w3.org/2000/svg"><defs
   id="defs41571" />
    <path
   id="path2669"
   d="M0,0L90.709,0L90.709,90.709L0,90.709"
   style="fill:rgb(255,170,170);fill-rule:nonzero;" />
    <path
   id="path2671"
   d="M7.065,7.065L83.644,7.065L83.644,83.644L7.065,83.644"
   style="fill:rgb(170,255,255);fill-rule:nonzero;" />
    
    <path
   id="path2675"
   d="m 21.384649,9.8647611 c 0,0 2.999891,55.9094949 -10.887112,70.3002389"
   style="fill:none;fill-rule:nonzero;stroke:#000000;stroke-width:4.14px" />
    <path
   id="path2679"
   d="M 21.479644,16.485773 H 64.345668"
   style="fill:none;fill-rule:nonzero;stroke:#000000;stroke-width:4.14;stroke-miterlimit:4;stroke-dasharray:none" />
    <g
   transform="matrix(1,0,0,1,2.48372,6.81203)"
   id="g41565">
        <path
   d="m 61.903668,9.6737731 0,49.7862269 c 0,0 -1.047,13.231 7.366,13.231 8.103,0 8.682332,-0.134 8.682332,-0.134 L 71.577,50.906"
   style="fill:none;fill-rule:nonzero;stroke:#000000;stroke-width:4.14px"
   id="path41563" />
    </g>
<path
   style="fill:none;stroke:#000000;stroke-width:4.14;stroke-linecap:butt;stroke-linejoin:miter;stroke-miterlimit:4;stroke-dasharray:none;stroke-opacity:1"
   d="m 30.732761,29.85674 22.97143,12.712778"
   id="path46246" /><path
   style="fill:none;stroke:#000000;stroke-width:4.14;stroke-linecap:butt;stroke-linejoin:miter;stroke-miterlimit:4;stroke-dasharray:none;stroke-opacity:1"
   d="M 33.687834,49.858533 52.604325,72.314767"
   id="path46248" /></svg>
