<?xml version="1.0" encoding="UTF-8" standalone="no"?>
<svg
   width="32mm"
   height="32mm"
   version="1.1"
   viewBox="-4 -4 8 8"
   id="svg22498"
   xmlns="http://www.w3.org/2000/svg"
   xmlns:svg="http://www.w3.org/2000/svg">
  <defs
     id="defs22502" />
  <!-- From 春AF15:AG16 -->
  <path
     fill="#faa"
     d="m-4 -4 h8v8h-8"
     id="path22469" />
  <path
     fill="#aff"
     d="m-3.376915 -3.376915 h6.75383 v6.75383 h-6.75383"
     id="path22471" />
  <path
     d="m -0.59448615,-2.9766391 c 0,0 -1.06695055,2.33658215 -2.49209515,3.34579853"
     id="path22473"
     style="fill:none;stroke:#000000;stroke-width:0.365" />
  <path
     d="m -2.6568683,-2.3356226 2.01556048,2.08109861"
     id="path22475"
     style="fill:none;stroke:#000000;stroke-width:0.365" />
  <path
     d="M -1.6621227,-0.63821082 V 3.1747604"
     id="path22477"
     style="fill:none;stroke:#000000;stroke-width:0.365" />
  <path
     d="M -1.6621227,3.1719912 -2.3490117,2.3267725"
     id="path22479"
     style="fill:none;stroke:#000000;stroke-width:0.365" />
  <path
     d="m -2.2924141,0.23869975 c 0,0 -0.2773282,1.25967435 -0.7109001,2.38560695"
     id="path22481"
     style="fill:none;stroke:#000000;stroke-width:0.365" />
  <path
     d="m -1.1579162,0.2325576 0.67893811,2.1423148"
     id="path22483"
     style="fill:none;stroke:#000000;stroke-width:0.365" />
  <path
     d="m 0.38144992,-2.0831004 c 0,0 0.0303209,3.3440716 -1.06263852,4.5069921"
     id="path49487"
     style="fill:none;stroke:#000000;stroke-width:0.365" />
  <path
     d="M 0.28688741,-0.44636887 1.1287377,1.1047062"
     id="path49489"
     style="fill:none;stroke:#000000;stroke-width:0.365" />
  <path
     d="m 1.9798612,-2.0831004 c 0,0 0.03032,3.3440716 -1.06263846,4.5069921"
     id="path49495"
     style="fill:none;stroke:#000000;stroke-width:0.365" />
  <path
     d="M 1.8883491,-0.61150816 3.0910011,2.3227246"
     id="path49497"
     style="fill:none;stroke:#000000;stroke-width:0.365" />
</svg>
