<?xml version="1.0" encoding="UTF-8" standalone="no"?>
<svg
   width="32mm"
   height="32mm"
   version="1.1"
   viewBox="-4 -4 8 8"
   id="svg6003"
   xmlns="http://www.w3.org/2000/svg"
   xmlns:svg="http://www.w3.org/2000/svg">
  <defs
     id="defs6007" />
  <!-- From ç£O15:P16 -->
  <path
     fill="#faa"
     d="m-4 -4 h8v8h-8"
     id="path5986" />
  <path
     fill="#aff"
     d="m-3.376915 -3.376915 h6.75383 v6.75383 h-6.75383"
     id="path5988" />
  <path
     d="M -0.42487934,-0.98100122 H 2.9308266"
     id="path5992"
     style="fill:none;stroke:#000000;stroke-width:0.365" />
  <path
     d="M 2.9313438,-0.98100122 2.399576,3.1241"
     id="path5994"
     style="fill:none;stroke:#000000;stroke-width:0.365" />
  <path
     d="M 2.3996406,3.1244 1.0396125,1.9094"
     id="path5996"
     style="fill:none;stroke:#000000;stroke-width:0.365" />
  <path
     d="m 1.3858143,-3.1123317 c 0,3.89075846 -1.67654402,6.2056977 -1.67654402,6.2056977"
     id="path6000"
     style="fill:none;stroke:#000000;stroke-width:0.365;stroke-miterlimit:4;stroke-dasharray:none" />
  <path
     style="fill:none;stroke:#000000;stroke-width:0.365;stroke-linecap:butt;stroke-linejoin:miter;stroke-miterlimit:4;stroke-dasharray:none;stroke-opacity:1"
     d="m 0.00694742,-2.5979804 0.6917188,1.5802398"
     id="path16859" />
  <path
     d="m -2.8008631,-2.8393194 h 2.1016654"
     id="path5851"
     style="fill:none;stroke:#000000;stroke-width:0.365" />
  <path
     d="m -2.4967162,-2.2595571 0.2804029,1.33936399"
     id="path5853"
     style="fill:none;stroke:#000000;stroke-width:0.365" />
  <path
     d="m -1.013652,-2.8262131 c 0,0 -0.1067898,1.614083 -0.6942937,2.33529082"
     id="path5855"
     style="fill:none;stroke:#000000;stroke-width:0.365" />
  <path
     d="m -3.0606435,-0.4727276 h 2.62210567"
     id="path5857"
     style="fill:none;stroke:#000000;stroke-width:0.365" />
  <path
     d="m -2.9331548,0.12889483 h 2.36624876"
     id="path31694"
     style="fill:none;stroke:#000000;stroke-width:0.365" />
  <path
     d="M -2.4967162,0.81808223 -2.2163133,2.4102394"
     id="path31696"
     style="fill:none;stroke:#000000;stroke-width:0.365" />
  <path
     d="m -1.013652,0.14447485 c 0,0 -0.1484348,1.69328465 -0.7359387,2.55061425"
     id="path31698"
     style="fill:none;stroke:#000000;stroke-width:0.365" />
  <path
     d="m -3.0606435,2.9421601 2.62210567,-0.494142"
     id="path31700"
     style="fill:none;stroke:#000000;stroke-width:0.365" />
</svg>
